P3
# CREATOR: GIMP PNM Filter Version 1.1
80 80
255
0
0
0
0
0
0
0
0
0
0
0
0
0
0
0
0
0
0
0
0
0
0
0
0
0
0
0
0
0
0
0
0
0
0
0
0
0
0
0
0
0
0
0
0
0
0
0
0
0
0
0
0
0
0
0
0
0
0
0
0
0
0
0
0
0
0
0
0
0
0
0
0
0
0
0
0
0
0
0
0
0
0
0
0
0
0
0
0
0
0
0
0
0
0
0
0
0
0
0
0
0
0
0
0
0
0
0
0
0
0
0
0
0
0
0
0
0
0
0
0
0
0
0
0
0
0
0
0
0
0
0
0
0
0
0
0
0
0
0
0
0
0
0
0
0
0
0
0
0
0
0
0
0
0
0
0
0
0
0
0
0
0
0
0
0
0
0
0
0
0
0
0
0
0
0
0
0
0
0
0
0
0
0
0
0
0
0
0
0
0
0
0
0
0
0
0
0
0
0
0
0
0
0
0
0
0
0
0
0
0
0
0
0
0
0
0
0
0
0
0
0
0
0
0
0
0
0
0
0
0
0
0
0
0
0
0
0
0
0
0
0
0
0
0
0
0
0
0
0
0
0
0
0
0
0
0
0
0
0
0
0
0
0
0
0
0
0
0
0
0
0
0
0
0
0
0
0
0
0
0
0
0
0
0
0
0
0
0
0
0
0
0
0
0
0
0
0
0
0
0
0
0
0
0
0
0
0
0
0
0
0
0
0
0
0
0
0
0
0
0
0
0
0
0
0
0
0
0
0
0
0
0
0
0
0
0
0
0
0
0
0
0
0
0
0
0
0
0
0
0
0
0
0
0
0
0
0
0
0
0
0
0
0
0
0
0
0
0
0
0
0
0
0
0
0
0
0
0
0
0
0
0
0
0
0
0
0
0
0
0
0
0
0
0
0
0
0
0
0
0
0
0
0
0
0
0
0
0
0
0
0
0
0
0
0
0
0
0
0
0
0
0
0
0
0
0
0
0
0
0
0
0
0
0
0
0
0
0
0
0
0
0
0
0
0
0
0
0
0
0
0
0
0
0
0
0
0
0
0
0
0
0
0
0
0
0
0
0
0
0
0
0
0
0
0
0
0
0
0
0
0
0
0
0
0
0
0
0
0
0
0
0
0
0
0
0
0
0
0
0
0
0
0
0
0
0
0
0
0
0
0
0
0
0
0
0
0
0
0
0
0
0
0
0
0
0
0
0
0
0
0
0
0
0
0
0
0
0
0
0
0
0
0
0
0
0
0
0
0
0
0
0
0
0
0
0
0
0
0
0
0
0
0
0
0
0
0
0
0
0
0
0
0
0
0
0
0
0
0
0
0
0
0
0
0
0
0
0
0
0
0
0
0
0
0
0
0
0
0
0
0
0
0
0
0
0
0
0
0
0
0
0
0
0
0
0
0
0
0
0
0
0
0
0
0
0
0
0
0
0
0
0
0
0
0
0
0
0
0
0
0
0
0
0
0
0
0
0
0
0
0
0
0
0
0
0
0
0
0
0
0
0
0
0
0
0
0
0
0
0
0
0
0
0
0
0
0
0
0
0
0
0
0
0
0
0
0
0
0
0
0
0
0
0
0
0
0
0
0
0
0
0
0
0
0
0
0
0
0
0
0
0
0
0
0
0
0
0
0
0
0
0
0
0
0
0
0
0
0
0
0
0
0
0
0
0
0
0
0
0
0
0
0
0
0
0
0
0
0
0
0
0
0
0
0
0
0
0
0
0
0
0
0
0
0
0
0
0
0
0
0
0
0
0
0
0
0
0
0
0
0
0
0
0
0
0
0
0
0
0
0
0
0
0
0
0
0
0
0
0
0
0
0
0
0
0
0
0
0
0
0
0
0
0
0
0
0
0
0
0
0
0
0
0
0
0
0
0
0
0
0
0
0
0
0
0
0
0
0
0
0
0
0
0
0
0
0
0
0
0
0
0
0
0
0
0
0
0
0
0
0
0
0
0
0
0
0
0
0
0
0
0
0
0
0
0
0
0
0
0
0
0
0
0
0
0
0
0
0
0
0
0
0
0
0
0
0
0
0
0
0
0
0
0
0
0
0
0
0
0
0
0
0
0
0
0
0
0
0
0
0
0
0
0
0
0
0
0
0
0
0
0
0
0
0
0
0
0
0
0
0
0
0
0
0
0
0
0
0
0
0
0
0
0
0
0
0
0
0
0
0
0
0
0
0
0
0
0
0
0
0
0
0
0
0
0
0
0
0
0
0
0
0
0
0
0
0
0
0
0
0
0
0
0
0
0
0
0
0
0
0
0
0
0
0
0
0
0
0
0
0
0
0
0
0
0
0
0
0
0
0
0
0
0
0
0
0
0
0
0
0
0
0
0
0
0
0
0
0
0
0
0
0
0
0
0
0
0
0
0
0
0
0
0
0
0
0
0
0
0
0
0
0
0
0
0
0
0
0
0
0
0
0
0
0
0
0
0
0
0
0
0
0
0
0
0
0
0
0
0
0
0
0
0
0
0
0
0
0
0
0
0
0
0
0
0
0
0
0
0
0
0
0
0
0
0
0
0
0
0
0
0
0
0
0
0
0
0
0
0
0
0
0
0
0
0
0
0
0
0
0
0
0
0
0
0
0
0
0
0
0
0
0
0
0
0
0
0
0
0
0
0
0
0
0
0
0
0
0
0
0
0
0
0
0
0
0
0
0
0
0
0
0
0
0
0
0
0
0
0
0
0
0
0
0
0
0
0
0
0
0
0
0
0
0
0
0
0
0
0
0
0
0
0
0
0
0
0
0
0
0
0
0
0
0
0
0
0
0
0
0
0
0
0
0
0
0
0
0
0
0
0
0
0
0
0
0
0
0
0
0
0
0
0
0
0
0
0
0
0
0
0
0
0
0
0
0
0
0
0
0
0
0
0
0
0
0
0
0
0
0
0
0
0
0
0
0
0
0
0
0
0
0
0
0
0
0
0
0
0
0
0
0
0
0
0
0
0
0
0
0
0
0
0
0
0
0
0
0
0
0
0
0
0
0
0
0
0
0
0
0
0
0
0
0
0
0
0
0
0
0
0
0
0
0
0
0
0
0
0
0
0
0
0
0
0
0
0
0
0
0
0
0
0
0
0
0
0
0
0
0
0
0
0
0
0
0
0
0
0
0
0
0
0
0
0
0
0
0
0
0
0
0
0
0
0
0
0
0
0
0
0
0
0
0
0
0
0
0
0
0
0
0
0
0
0
0
0
0
0
0
0
0
0
0
0
0
0
0
0
0
0
0
0
0
0
0
0
0
0
0
0
0
0
0
0
0
0
0
0
0
0
0
0
0
0
0
0
0
0
0
0
0
0
0
0
0
0
0
0
0
0
0
0
0
0
0
0
0
0
0
0
0
0
0
0
0
0
0
0
0
0
0
0
0
0
0
0
0
0
0
0
0
0
0
0
0
0
0
0
0
0
0
0
0
0
0
0
0
0
0
0
0
0
0
0
0
0
0
0
0
0
0
0
0
0
0
0
0
0
0
0
0
0
0
0
0
0
0
0
0
0
0
0
0
0
0
0
0
0
0
0
0
0
0
0
0
0
0
0
0
0
0
0
0
0
0
0
0
0
0
0
0
0
0
0
0
0
0
0
0
0
0
0
0
0
0
0
0
0
0
0
0
0
0
0
0
0
0
0
0
0
0
0
0
0
0
0
0
0
0
0
0
0
0
0
0
0
0
0
0
0
0
0
0
0
0
0
0
0
0
0
0
0
0
0
0
0
0
0
0
0
0
0
0
0
0
0
0
0
0
0
0
0
0
0
0
0
0
0
0
0
0
0
0
0
0
0
0
0
0
0
0
0
0
0
0
0
0
0
0
0
0
0
0
0
0
0
0
0
0
0
0
0
0
0
0
0
0
0
0
0
0
0
0
0
0
0
0
0
0
0
0
0
0
0
0
0
0
0
0
0
0
0
0
0
0
0
0
0
0
0
0
0
0
0
0
0
0
0
0
0
0
0
0
0
0
0
0
0
0
0
0
0
0
0
0
0
0
0
0
0
0
0
0
0
0
0
0
0
0
0
0
0
0
0
0
0
0
0
0
0
0
0
0
0
0
0
0
0
0
0
0
0
0
0
0
0
0
0
0
0
0
0
0
0
0
0
0
0
0
0
0
0
0
0
0
0
0
0
0
0
0
0
0
0
0
0
0
0
0
0
0
0
0
0
0
0
0
0
0
0
0
0
0
0
0
0
0
0
0
0
0
0
0
0
0
0
0
0
0
0
0
0
0
0
0
0
0
0
0
0
0
0
0
0
0
0
0
0
0
0
0
0
0
0
0
0
0
0
0
0
0
0
0
0
0
0
0
0
0
0
0
0
0
0
0
0
0
0
0
0
0
0
0
0
0
0
0
0
0
0
0
0
0
0
0
0
0
0
0
0
0
0
0
0
0
0
0
0
0
0
0
0
0
0
0
0
0
0
0
0
0
0
0
0
0
0
0
0
0
0
0
0
0
0
0
0
0
0
0
0
0
0
0
0
0
0
0
0
0
0
0
0
0
0
0
0
0
0
0
0
0
0
0
0
0
0
0
0
0
0
0
0
0
0
0
0
0
0
0
0
0
0
0
0
0
0
0
0
0
0
0
0
0
0
0
0
0
0
0
0
0
0
0
0
0
0
0
0
0
0
0
0
0
0
0
0
0
0
0
0
0
0
0
0
0
0
0
0
0
0
0
0
0
0
0
0
0
0
0
0
0
0
0
0
0
0
0
0
0
0
0
0
0
0
0
0
0
0
0
0
0
0
0
0
0
0
0
0
0
0
0
0
0
0
0
0
0
0
0
0
0
0
0
0
0
0
0
0
0
0
0
0
0
0
0
0
0
0
0
0
0
0
0
0
0
0
0
0
0
0
0
0
0
0
0
0
0
0
0
0
0
0
0
0
0
0
0
0
0
0
0
0
0
0
0
0
0
0
0
0
0
0
0
0
0
0
0
0
0
0
0
0
0
0
0
0
0
0
0
0
0
0
0
0
0
0
0
0
0
0
0
0
0
0
0
0
0
0
0
0
0
0
0
0
0
0
0
0
0
0
0
0
0
0
0
0
0
0
0
0
0
0
0
0
0
0
0
0
0
0
0
0
0
0
0
0
0
0
0
0
0
0
0
0
0
0
0
0
0
0
0
0
0
0
0
0
0
0
0
0
0
0
0
0
0
0
0
0
0
0
0
0
0
0
0
0
0
0
0
0
0
0
0
0
0
0
0
0
0
0
0
0
0
0
0
0
0
0
0
0
0
0
0
0
0
0
0
0
0
0
0
0
0
0
0
0
0
0
0
0
0
0
0
0
0
0
0
0
0
0
0
0
0
0
0
0
0
0
0
0
0
0
0
0
0
0
0
0
0
0
0
0
0
0
0
0
0
0
0
0
0
0
0
0
0
0
0
0
0
0
0
0
0
0
0
0
0
0
0
0
0
0
0
0
0
0
0
0
0
0
0
0
0
0
0
0
0
0
0
0
0
0
0
0
0
0
0
0
0
0
0
0
0
0
0
0
0
0
0
0
0
0
0
0
0
0
0
0
0
0
0
0
0
0
0
0
0
0
0
0
0
0
0
0
0
0
0
0
0
0
0
0
0
0
0
0
0
0
0
0
0
0
0
0
0
0
0
0
0
0
0
0
0
0
0
0
0
0
0
0
0
0
0
0
0
0
0
0
0
0
0
0
0
0
0
0
0
0
0
0
0
0
0
0
0
0
0
0
0
0
0
0
0
0
0
0
0
0
0
0
0
0
0
0
0
0
0
0
0
0
0
0
0
0
0
0
0
0
0
0
0
0
0
0
0
0
0
0
0
0
0
0
0
0
0
0
0
0
0
0
0
0
0
0
0
0
0
0
0
0
0
0
0
0
0
0
0
0
0
0
0
0
0
0
0
0
0
0
0
0
0
0
0
0
0
0
0
0
0
0
0
0
0
0
0
0
0
0
0
0
0
0
0
0
0
0
0
0
0
0
0
0
0
0
0
0
0
0
0
0
0
0
0
0
0
0
0
0
0
0
0
0
0
0
0
0
0
0
0
0
0
0
0
0
0
0
0
0
0
0
0
0
0
0
0
0
0
0
0
0
0
0
0
0
0
0
0
0
0
0
0
0
0
0
0
0
0
0
0
0
0
0
0
0
0
0
0
0
0
0
0
0
0
0
0
0
0
0
0
0
0
0
0
0
0
0
0
0
0
0
0
0
0
0
0
0
0
0
0
0
0
0
0
0
0
0
0
0
0
0
0
0
0
0
0
0
0
0
0
0
0
0
0
0
0
0
0
0
0
0
0
0
0
0
0
0
0
0
0
0
0
0
0
0
0
0
0
0
0
0
0
0
0
0
0
0
0
0
0
0
0
0
0
0
0
0
0
0
0
0
0
0
0
0
0
0
0
0
0
0
0
0
0
0
0
0
0
0
0
0
0
0
0
0
0
0
0
0
0
0
0
0
0
0
0
0
0
0
0
0
0
0
0
0
0
0
0
0
0
0
0
0
0
0
0
0
0
0
0
0
0
0
0
0
0
0
0
0
0
0
0
0
0
0
0
0
0
0
0
0
0
0
0
0
0
0
0
0
0
0
0
0
0
0
0
0
0
0
0
0
0
0
0
0
0
0
0
0
0
0
0
0
0
0
0
0
0
0
0
0
0
0
0
0
0
0
0
0
0
0
0
0
0
0
0
0
0
0
0
0
0
0
0
0
0
0
0
0
0
0
0
0
0
0
0
0
0
0
0
0
0
0
0
0
0
0
0
0
0
0
0
0
0
0
0
0
0
0
0
0
0
0
0
0
0
0
0
0
0
0
0
0
0
0
0
0
0
0
0
0
0
0
0
0
0
0
0
0
0
0
0
0
0
0
0
0
0
0
0
0
0
0
0
0
0
0
0
0
0
0
0
0
0
0
0
0
0
0
0
0
0
0
0
0
0
0
0
0
0
0
0
0
0
0
0
0
0
0
0
0
0
0
0
0
0
0
0
0
0
0
0
0
0
0
0
0
0
0
0
0
0
0
0
0
0
0
0
0
0
0
0
0
0
0
0
0
0
0
0
0
0
0
0
0
0
0
0
0
0
0
0
0
0
0
0
0
0
0
0
0
0
0
0
0
0
0
0
0
0
0
0
0
0
0
0
0
0
0
0
0
0
0
0
0
0
0
0
0
0
0
0
0
0
0
0
0
0
0
0
0
0
0
0
0
0
0
0
0
0
0
0
0
0
0
0
0
0
0
0
0
0
0
0
0
0
0
0
0
0
0
0
0
0
0
0
0
0
0
0
0
0
0
0
0
0
0
0
0
0
0
0
0
85
85
85
170
170
170
255
255
85
85
85
85
0
0
0
0
0
0
0
0
0
0
0
0
0
0
0
0
0
0
0
0
0
0
0
0
0
0
0
0
0
0
0
0
0
0
0
0
0
0
0
0
0
0
0
0
0
0
0
0
0
0
0
0
0
0
0
0
0
0
0
0
0
0
0
0
0
0
0
0
0
0
0
0
0
0
0
0
0
0
0
0
0
0
0
0
0
0
0
0
0
0
0
0
0
0
0
0
0
0
0
0
0
0
0
0
0
0
0
0
0
0
0
0
0
0
0
0
0
0
0
0
0
0
0
0
0
0
0
0
0
0
0
0
0
0
0
0
0
0
0
0
0
0
0
0
0
0
0
0
0
0
0
0
0
0
0
0
0
0
0
0
0
0
0
0
0
0
0
0
0
0
0
0
0
0
0
0
0
0
0
0
0
0
0
0
0
0
0
0
0
0
0
0
0
0
0
0
0
0
0
0
0
0
0
0
0
0
0
0
0
0
0
0
0
0
0
0
0
0
0
0
0
0
85
85
85
85
85
85
255
255
85
0
0
0
0
0
0
255
255
85
170
170
170
85
85
85
0
0
0
0
0
0
0
0
0
0
0
0
0
0
0
0
0
0
0
0
0
0
0
0
0
0
0
0
0
0
0
0
0
0
0
0
0
0
0
0
0
0
0
0
0
0
0
0
0
0
0
0
0
0
0
0
0
0
0
0
0
0
0
0
0
0
0
0
0
0
0
0
0
0
0
0
0
0
0
0
0
0
0
0
0
0
0
0
0
0
0
0
0
0
0
0
0
0
0
0
0
0
0
0
0
0
0
0
0
0
0
0
0
0
0
0
0
0
0
0
0
0
0
0
0
0
0
0
0
0
0
0
0
0
0
0
0
0
0
0
0
0
0
0
0
0
0
0
0
0
0
0
0
0
0
0
0
0
0
0
0
0
0
0
0
0
0
0
0
0
0
0
0
0
0
0
0
0
0
0
0
0
0
0
0
0
0
0
0
0
0
0
0
0
0
0
0
0
0
0
0
0
0
0
0
0
0
0
0
0
0
0
0
85
85
85
170
170
170
170
170
170
85
85
85
85
85
85
85
85
85
85
85
85
85
85
85
170
170
170
170
170
170
0
0
0
0
0
0
0
0
0
0
0
0
0
0
0
0
0
0
0
0
0
0
0
0
0
0
0
0
0
0
0
0
0
0
0
0
0
0
0
0
0
0
0
0
0
0
0
0
0
0
0
0
0
0
0
0
0
0
0
0
0
0
0
0
0
0
0
0
0
0
0
0
0
0
0
0
0
0
0
0
0
0
0
0
0
0
0
0
0
0
0
0
0
0
0
0
0
0
0
0
0
0
0
0
0
0
0
0
0
0
0
0
0
0
0
0
0
0
0
0
0
0
0
85
85
85
0
0
0
85
85
85
85
85
85
0
0
0
0
0
0
0
0
0
0
0
0
0
0
0
0
0
0
0
0
0
0
0
0
0
0
0
0
0
0
0
0
0
0
0
0
0
0
0
0
0
0
0
0
0
0
0
0
0
0
0
0
0
0
0
0
0
0
0
0
0
0
0
0
0
0
0
0
0
0
0
0
0
0
0
85
85
85
170
170
170
170
170
170
170
170
170
170
170
170
170
170
170
170
170
170
170
170
170
170
170
170
85
85
85
0
0
0
0
0
0
0
0
0
0
0
0
0
0
0
0
0
0
0
0
0
0
0
0
0
0
0
0
0
0
0
0
0
0
0
0
0
0
0
0
0
0
0
0
0
0
0
0
0
0
0
0
0
0
0
0
0
0
0
0
0
0
0
0
0
0
0
0
0
0
0
0
0
0
0
85
85
85
85
85
85
0
0
0
85
85
85
0
0
0
0
0
0
0
0
0
0
0
0
0
0
0
0
0
0
0
0
0
0
0
0
0
0
0
85
85
85
170
170
170
170
170
170
170
170
170
170
170
170
170
170
170
85
85
85
170
170
170
170
170
170
85
85
85
85
85
85
0
0
0
0
0
0
0
0
0
0
0
0
0
0
0
0
0
0
0
0
0
0
0
0
0
0
0
0
0
0
0
0
0
0
0
0
0
0
0
0
0
0
0
0
0
0
0
0
0
0
0
0
0
0
0
0
0
0
0
0
0
0
0
85
85
85
85
85
85
0
0
0
85
85
85
170
170
170
170
170
170
85
85
85
0
0
0
85
85
85
85
85
85
0
0
0
0
0
0
0
0
0
0
0
0
0
0
0
0
0
0
0
0
0
0
0
0
0
0
0
0
0
0
0
0
0
0
0
0
0
0
0
0
0
0
0
0
0
0
0
0
0
0
0
0
0
0
0
0
0
0
0
0
0
0
0
0
0
0
85
85
85
170
170
170
170
170
170
85
85
85
170
170
170
170
170
170
170
170
170
170
170
170
170
170
170
85
85
85
0
0
0
0
0
0
0
0
0
0
0
0
0
0
0
85
85
85
170
170
170
85
85
85
170
170
170
170
170
170
85
85
85
170
170
170
170
170
170
170
170
170
85
85
85
85
85
85
170
170
170
170
170
170
170
170
170
85
85
85
0
0
0
0
0
0
0
0
0
0
0
0
0
0
0
0
0
0
0
0
0
0
0
0
0
0
0
0
0
0
0
0
0
0
0
0
0
0
0
0
0
0
0
0
0
0
0
0
0
0
0
0
0
0
0
0
0
0
0
0
85
85
85
85
85
85
85
85
85
85
85
85
85
85
85
85
85
85
85
85
85
0
0
0
0
0
0
0
0
0
0
0
0
0
0
0
0
0
0
0
0
0
0
0
0
0
0
0
0
0
0
0
0
0
0
0
0
0
0
0
0
0
0
0
0
0
0
0
0
0
0
0
0
0
0
0
0
0
85
85
85
85
85
85
170
170
170
170
170
170
85
85
85
85
85
85
170
170
170
170
170
170
170
170
170
170
170
170
85
85
85
170
170
170
170
170
170
170
170
170
170
170
170
0
0
0
0
0
0
0
0
0
0
0
0
170
170
170
170
170
170
170
170
170
170
170
170
255
255
255
170
170
170
170
170
170
170
170
170
170
170
170
170
170
170
170
170
170
85
85
85
85
85
85
85
85
85
85
85
85
170
170
170
170
170
170
85
85
85
85
85
85
0
0
0
0
0
0
0
0
0
0
0
0
0
0
0
0
0
0
0
0
0
0
0
0
0
0
0
0
0
0
0
0
0
0
0
0
0
0
0
0
0
0
0
0
0
0
0
0
85
85
85
85
85
85
85
85
85
85
85
85
85
85
85
85
85
85
0
0
0
0
0
0
0
0
0
0
0
0
0
0
0
0
0
0
0
0
0
0
0
0
0
0
0
0
0
0
0
0
0
0
0
0
0
0
0
0
0
0
0
0
0
0
0
0
85
85
85
85
85
85
170
170
170
170
170
170
85
85
85
85
85
85
85
85
85
85
85
85
170
170
170
170
170
170
170
170
170
170
170
170
170
170
170
170
170
170
255
255
255
170
170
170
170
170
170
170
170
170
170
170
170
0
0
0
0
0
0
0
0
0
0
0
0
0
0
0
170
170
170
255
255
255
170
170
170
85
85
85
255
255
255
255
255
255
255
255
255
170
170
170
85
85
85
170
170
170
170
170
170
170
170
170
85
85
85
85
85
85
85
85
85
170
170
170
170
170
170
85
85
85
170
170
170
170
170
170
85
85
85
85
85
85
85
85
85
85
85
85
0
0
0
0
0
0
0
0
0
0
0
0
0
0
0
0
0
0
0
0
0
0
0
0
0
0
0
0
0
0
85
85
85
85
85
85
85
85
85
85
85
85
85
85
85
85
85
85
0
0
0
0
0
0
0
0
0
0
0
0
0
0
0
0
0
0
0
0
0
0
0
0
0
0
0
0
0
0
85
85
85
85
85
85
85
85
85
85
85
85
170
170
170
170
170
170
85
85
85
170
170
170
170
170
170
85
85
85
85
85
85
85
85
85
170
170
170
170
170
170
170
170
170
85
85
85
170
170
170
255
255
255
255
255
255
255
255
255
170
170
170
85
85
85
255
255
255
170
170
170
0
0
0
0
0
0
0
0
0
0
0
0
0
0
0
0
0
0
0
0
0
85
85
85
255
255
255
170
170
170
170
170
170
170
170
170
170
170
170
170
170
170
170
170
170
170
170
170
85
85
85
85
85
85
170
170
170
170
170
170
85
85
85
85
85
85
85
85
85
85
85
85
85
85
85
170
170
170
170
170
170
85
85
85
170
170
170
170
170
170
170
170
170
170
170
170
170
170
170
170
170
170
170
170
170
85
85
85
0
0
0
0
0
0
0
0
0
0
0
0
85
85
85
85
85
85
170
170
170
170
170
170
85
85
85
85
85
85
0
0
0
0
0
0
0
0
0
0
0
0
85
85
85
170
170
170
170
170
170
170
170
170
170
170
170
170
170
170
170
170
170
170
170
170
85
85
85
170
170
170
170
170
170
85
85
85
85
85
85
85
85
85
85
85
85
85
85
85
170
170
170
170
170
170
85
85
85
85
85
85
85
85
85
170
170
170
170
170
170
170
170
170
85
85
85
170
170
170
170
170
170
255
255
255
170
170
170
0
0
0
0
0
0
0
0
0
0
0
0
0
0
0
0
0
0
0
0
0
0
0
0
0
0
0
85
85
85
255
255
255
170
170
170
170
170
170
170
170
170
170
170
170
170
170
170
170
170
170
170
170
170
170
170
170
170
170
170
255
255
255
255
255
255
170
170
170
170
170
170
170
170
170
85
85
85
170
170
170
170
170
170
85
85
85
85
85
85
85
85
85
85
85
85
85
85
85
170
170
170
170
170
170
170
170
170
170
170
170
170
170
170
170
170
170
85
85
85
0
0
0
85
85
85
85
85
85
85
85
85
170
170
170
85
85
85
85
85
85
0
0
0
0
0
0
170
170
170
170
170
170
170
170
170
170
170
170
170
170
170
170
170
170
85
85
85
85
85
85
85
85
85
85
85
85
85
85
85
85
85
85
170
170
170
85
85
85
170
170
170
170
170
170
170
170
170
255
255
255
255
255
255
170
170
170
170
170
170
170
170
170
170
170
170
170
170
170
170
170
170
170
170
170
170
170
170
170
170
170
255
255
255
170
170
170
0
0
0
0
0
0
0
0
0
0
0
0
0
0
0
0
0
0
0
0
0
0
0
0
0
0
0
0
0
0
0
0
0
0
0
0
170
170
170
170
170
170
255
255
255
170
170
170
85
85
85
170
170
170
170
170
170
170
170
170
170
170
170
85
85
85
170
170
170
170
170
170
170
170
170
170
170
170
170
170
170
170
170
170
170
170
170
170
170
170
170
170
170
85
85
85
85
85
85
85
85
85
85
85
85
85
85
85
85
85
85
85
85
85
170
170
170
170
170
170
85
85
85
85
85
85
85
85
85
85
85
85
85
85
85
0
0
0
85
85
85
85
85
85
85
85
85
85
85
85
170
170
170
170
170
170
85
85
85
85
85
85
85
85
85
85
85
85
85
85
85
85
85
85
85
85
85
85
85
85
170
170
170
170
170
170
170
170
170
170
170
170
170
170
170
170
170
170
170
170
170
170
170
170
85
85
85
170
170
170
170
170
170
170
170
170
170
170
170
85
85
85
170
170
170
170
170
170
170
170
170
170
170
170
0
0
0
0
0
0
0
0
0
0
0
0
0
0
0
0
0
0
0
0
0
0
0
0
0
0
0
0
0
0
0
0
0
0
0
0
0
0
0
0
0
0
0
0
0
0
0
0
170
170
170
170
170
170
170
170
170
170
170
170
170
170
170
170
170
170
170
170
170
170
170
170
170
170
170
170
170
170
170
170
170
85
85
85
170
170
170
85
85
85
170
170
170
170
170
170
85
85
85
170
170
170
170
170
170
85
85
85
170
170
170
170
170
170
85
85
85
85
85
85
85
85
85
85
85
85
85
85
85
85
85
85
85
85
85
85
85
85
85
85
85
85
85
85
85
85
85
85
85
85
85
85
85
85
85
85
85
85
85
85
85
85
85
85
85
85
85
85
170
170
170
170
170
170
85
85
85
85
85
85
170
170
170
85
85
85
170
170
170
170
170
170
85
85
85
170
170
170
85
85
85
170
170
170
170
170
170
170
170
170
170
170
170
170
170
170
85
85
85
85
85
85
170
170
170
255
255
255
170
170
170
170
170
170
0
0
0
0
0
0
0
0
0
0
0
0
0
0
0
0
0
0
0
0
0
0
0
0
0
0
0
0
0
0
0
0
0
0
0
0
0
0
0
0
0
0
0
0
0
0
0
0
0
0
0
0
0
0
0
0
0
0
0
0
170
170
170
170
170
170
170
170
170
255
255
255
255
255
255
170
170
170
85
85
85
170
170
170
85
85
85
170
170
170
170
170
170
170
170
170
85
85
85
85
85
85
85
85
85
85
85
85
85
85
85
170
170
170
85
85
85
170
170
170
170
170
170
85
85
85
170
170
170
85
85
85
85
85
85
85
85
85
85
85
85
85
85
85
85
85
85
85
85
85
85
85
85
85
85
85
85
85
85
85
85
85
85
85
85
170
170
170
85
85
85
85
85
85
170
170
170
85
85
85
170
170
170
170
170
170
85
85
85
85
85
85
85
85
85
85
85
85
170
170
170
170
170
170
170
170
170
85
85
85
170
170
170
170
170
170
85
85
85
170
170
170
255
255
255
170
170
170
170
170
170
170
170
170
0
0
0
0
0
0
0
0
0
0
0
0
0
0
0
0
0
0
0
0
0
0
0
0
0
0
0
0
0
0
0
0
0
0
0
0
0
0
0
0
0
0
0
0
0
0
0
0
0
0
0
0
0
0
0
0
0
0
0
0
0
0
0
0
0
0
0
0
0
0
0
0
170
170
170
255
255
255
255
255
255
170
170
170
170
170
170
170
170
170
85
85
85
85
85
85
85
85
85
85
85
85
85
85
85
170
170
170
170
170
170
85
85
85
170
170
170
170
170
170
170
170
170
85
85
85
0
0
0
170
170
170
85
85
85
85
85
85
170
170
170
170
170
170
85
85
85
85
85
85
85
85
85
85
85
85
85
85
85
85
85
85
85
85
85
170
170
170
170
170
170
85
85
85
170
170
170
85
85
85
85
85
85
170
170
170
170
170
170
170
170
170
85
85
85
170
170
170
170
170
170
85
85
85
85
85
85
85
85
85
170
170
170
85
85
85
170
170
170
85
85
85
170
170
170
255
255
255
170
170
170
170
170
170
85
85
85
0
0
0
0
0
0
0
0
0
0
0
0
0
0
0
0
0
0
0
0
0
0
0
0
0
0
0
0
0
0
0
0
0
0
0
0
0
0
0
0
0
0
0
0
0
0
0
0
0
0
0
0
0
0
0
0
0
0
0
0
0
0
0
0
0
0
0
0
0
0
0
0
0
0
0
0
0
0
0
0
0
85
85
85
170
170
170
85
85
85
170
170
170
255
255
255
85
85
85
170
170
170
170
170
170
170
170
170
170
170
170
170
170
170
170
170
170
85
85
85
170
170
170
170
170
170
85
85
85
170
170
170
170
170
170
85
85
85
85
85
85
85
85
85
85
85
85
85
85
85
85
85
85
85
85
85
85
85
85
85
85
85
0
0
0
85
85
85
85
85
85
85
85
85
85
85
85
170
170
170
170
170
170
85
85
85
170
170
170
170
170
170
170
170
170
170
170
170
170
170
170
170
170
170
170
170
170
170
170
170
170
170
170
85
85
85
170
170
170
170
170
170
85
85
85
170
170
170
85
85
85
85
85
85
0
0
0
0
0
0
0
0
0
0
0
0
0
0
0
0
0
0
0
0
0
0
0
0
0
0
0
0
0
0
0
0
0
0
0
0
0
0
0
0
0
0
0
0
0
0
0
0
0
0
0
0
0
0
0
0
0
0
0
0
0
0
0
0
0
0
0
0
0
0
0
0
0
0
0
0
0
0
0
0
0
0
0
0
0
0
0
0
0
0
0
0
0
0
0
0
85
85
85
85
85
85
170
170
170
170
170
170
170
170
170
170
170
170
170
170
170
170
170
170
170
170
170
85
85
85
85
85
85
85
85
85
0
0
0
0
0
0
0
0
0
85
85
85
170
170
170
170
170
170
85
85
85
85
85
85
85
85
85
85
85
85
85
85
85
85
85
85
85
85
85
85
85
85
170
170
170
170
170
170
85
85
85
0
0
0
0
0
0
0
0
0
85
85
85
85
85
85
170
170
170
170
170
170
170
170
170
170
170
170
170
170
170
170
170
170
170
170
170
170
170
170
85
85
85
85
85
85
85
85
85
0
0
0
0
0
0
0
0
0
0
0
0
0
0
0
0
0
0
0
0
0
0
0
0
0
0
0
0
0
0
0
0
0
0
0
0
0
0
0
0
0
0
0
0
0
0
0
0
0
0
0
0
0
0
0
0
0
0
0
0
0
0
0
0
0
0
0
0
0
0
0
0
0
0
0
0
0
0
0
0
0
0
0
0
0
0
0
0
0
0
0
0
0
0
0
0
0
0
0
0
0
0
0
0
0
0
0
0
0
0
0
0
0
0
0
0
0
0
0
0
0
0
0
0
0
0
0
0
0
0
0
0
0
0
0
0
0
0
0
0
0
85
85
85
170
170
170
170
170
170
170
170
170
85
85
85
85
85
85
170
170
170
85
85
85
85
85
85
85
85
85
170
170
170
85
85
85
85
85
85
170
170
170
85
85
85
85
85
85
170
170
170
170
170
170
170
170
170
85
85
85
0
0
0
0
0
0
0
0
0
0
0
0
0
0
0
0
0
0
0
0
0
0
0
0
0
0
0
0
0
0
0
0
0
0
0
0
0
0
0
0
0
0
0
0
0
0
0
0
0
0
0
0
0
0
0
0
0
0
0
0
0
0
0
0
0
0
0
0
0
0
0
0
0
0
0
0
0
0
0
0
0
0
0
0
0
0
0
0
0
0
0
0
0
0
0
0
0
0
0
0
0
0
0
0
0
0
0
0
0
0
0
0
0
0
0
0
0
0
0
0
0
0
0
0
0
0
0
0
0
0
0
0
0
0
0
0
0
0
0
0
0
0
0
0
0
0
0
0
0
0
0
0
0
0
0
0
0
0
0
0
0
0
0
0
0
0
0
0
0
0
0
85
85
85
170
170
170
170
170
170
170
170
170
85
85
85
85
85
85
85
85
85
170
170
170
170
170
170
170
170
170
0
0
0
85
85
85
85
85
85
85
85
85
85
85
85
0
0
0
170
170
170
170
170
170
170
170
170
85
85
85
85
85
85
170
170
170
170
170
170
170
170
170
170
170
170
85
85
85
0
0
0
0
0
0
0
0
0
0
0
0
0
0
0
0
0
0
0
0
0
0
0
0
0
0
0
0
0
0
0
0
0
0
0
0
0
0
0
0
0
0
0
0
0
0
0
0
0
0
0
0
0
0
0
0
0
0
0
0
0
0
0
0
0
0
0
0
0
0
0
0
0
0
0
0
0
0
0
0
0
0
0
0
0
0
0
0
0
0
0
0
0
0
0
0
0
0
0
0
0
0
0
0
0
0
0
0
0
0
0
0
0
0
0
0
0
0
0
0
0
0
0
0
0
0
0
0
0
0
0
0
0
0
0
0
0
0
0
0
0
0
0
0
0
0
0
0
0
0
0
0
0
85
85
85
85
85
85
170
170
170
170
170
170
170
170
170
85
85
85
85
85
85
85
85
85
170
170
170
85
85
85
170
170
170
170
170
170
85
85
85
0
0
0
85
85
85
85
85
85
85
85
85
85
85
85
0
0
0
85
85
85
170
170
170
170
170
170
85
85
85
85
85
85
85
85
85
85
85
85
85
85
85
170
170
170
170
170
170
170
170
170
170
170
170
85
85
85
0
0
0
0
0
0
0
0
0
0
0
0
0
0
0
0
0
0
0
0
0
0
0
0
0
0
0
0
0
0
0
0
0
0
0
0
0
0
0
0
0
0
0
0
0
0
0
0
0
0
0
0
0
0
0
0
0
0
0
0
0
0
0
0
0
0
0
0
0
0
0
0
0
0
0
0
0
0
0
0
0
0
0
0
0
0
0
0
0
0
0
0
0
0
0
0
0
0
0
0
0
0
0
0
0
0
0
0
0
0
0
0
0
0
0
0
0
0
0
0
0
0
0
0
0
0
0
0
0
0
0
0
85
85
85
85
85
85
170
170
170
170
170
170
170
170
170
170
170
170
85
85
85
85
85
85
85
85
85
85
85
85
170
170
170
85
85
85
85
85
85
255
255
255
85
85
85
85
85
85
0
0
0
0
0
0
0
0
0
0
170
170
0
170
170
85
85
85
0
0
0
0
0
0
85
85
85
85
85
85
170
170
170
170
170
170
85
85
85
170
170
170
170
170
170
85
85
85
85
85
85
85
85
85
170
170
170
170
170
170
170
170
170
170
170
170
85
85
85
85
85
85
0
0
0
0
0
0
0
0
0
0
0
0
0
0
0
0
0
0
0
0
0
0
0
0
0
0
0
0
0
0
0
0
0
0
0
0
0
0
0
0
0
0
0
0
0
0
0
0
0
0
0
0
0
0
0
0
0
0
0
0
0
0
0
0
0
0
0
0
0
0
0
0
0
0
0
0
0
0
0
0
0
0
0
0
0
0
0
0
0
0
0
0
0
0
0
0
0
0
0
0
0
0
85
85
85
85
85
85
85
85
85
170
170
170
170
170
170
170
170
170
170
170
170
170
170
170
170
170
170
85
85
85
170
170
170
85
85
85
170
170
170
85
85
85
170
170
170
170
170
170
85
85
85
170
170
170
255
255
255
85
85
85
85
85
85
85
85
85
0
0
0
0
0
0
0
0
0
85
85
85
85
85
85
0
0
0
0
0
0
0
0
0
85
85
85
85
85
85
85
85
85
170
170
170
170
170
170
170
170
170
85
85
85
170
170
170
170
170
170
85
85
85
170
170
170
85
85
85
170
170
170
170
170
170
170
170
170
170
170
170
255
255
255
170
170
170
170
170
170
85
85
85
85
85
85
85
85
85
0
0
0
0
0
0
0
0
0
0
0
0
0
0
0
0
0
0
0
0
0
0
0
0
0
0
0
0
0
0
0
0
0
0
0
0
0
0
0
0
0
0
0
0
0
0
0
0
0
0
0
0
0
0
0
0
0
0
0
0
0
0
0
0
0
0
0
0
0
0
0
0
85
85
85
85
85
85
170
170
170
170
170
170
170
170
170
170
170
170
255
255
255
170
170
170
170
170
170
170
170
170
85
85
85
85
85
85
85
85
85
170
170
170
85
85
85
85
85
85
85
85
85
85
85
85
170
170
170
170
170
170
170
170
170
170
170
170
85
85
85
85
85
85
170
170
170
0
0
0
0
0
0
0
0
0
0
0
0
85
85
85
85
85
85
0
0
0
0
0
0
0
0
0
0
0
0
170
170
170
85
85
85
85
85
85
170
170
170
170
170
170
85
85
85
170
170
170
170
170
170
85
85
85
85
85
85
85
85
85
170
170
170
85
85
85
85
85
85
85
85
85
170
170
170
170
170
170
170
170
170
255
255
255
170
170
170
170
170
170
170
170
170
170
170
170
85
85
85
85
85
85
0
0
0
0
0
0
0
0
0
0
0
0
0
0
0
0
0
0
0
0
0
0
0
0
0
0
0
0
0
0
0
0
0
0
0
0
0
0
0
0
0
0
0
0
0
0
0
0
0
0
0
0
0
0
85
85
85
85
85
85
85
85
85
170
170
170
170
170
170
170
170
170
170
170
170
170
170
170
170
170
170
170
170
170
170
170
170
85
85
85
170
170
170
170
170
170
170
170
170
85
85
85
170
170
170
85
85
85
170
170
170
255
255
255
170
170
170
170
170
170
170
170
170
85
85
85
170
170
170
170
170
170
85
85
85
0
0
0
0
0
0
0
0
0
0
0
0
85
85
85
85
85
85
0
0
0
0
0
0
0
0
0
0
0
0
85
85
85
85
85
85
170
170
170
85
85
85
170
170
170
170
170
170
170
170
170
255
255
255
170
170
170
85
85
85
85
85
85
85
85
85
170
170
170
170
170
170
170
170
170
170
170
170
85
85
85
170
170
170
85
85
85
170
170
170
170
170
170
170
170
170
170
170
170
170
170
170
170
170
170
85
85
85
85
85
85
0
0
0
0
0
0
0
0
0
0
0
0
0
0
0
0
0
0
0
0
0
0
0
0
0
0
0
0
0
0
0
0
0
0
0
0
0
0
0
0
0
0
0
0
0
170
170
170
170
170
170
170
170
170
170
170
170
170
170
170
170
170
170
170
170
170
85
85
85
170
170
170
170
170
170
170
170
170
170
170
170
170
170
170
85
85
85
170
170
170
85
85
85
170
170
170
170
170
170
85
85
85
170
170
170
170
170
170
85
85
85
170
170
170
85
85
85
255
255
255
170
170
170
85
85
85
0
0
0
0
0
0
0
0
0
0
0
0
0
0
0
85
85
85
0
0
0
0
0
0
0
0
0
0
0
0
0
0
0
0
0
0
85
85
85
170
170
170
255
255
255
170
170
170
170
170
170
170
170
170
170
170
170
255
255
255
85
85
85
170
170
170
170
170
170
85
85
85
170
170
170
170
170
170
170
170
170
170
170
170
170
170
170
170
170
170
255
255
255
170
170
170
170
170
170
170
170
170
170
170
170
170
170
170
170
170
170
255
255
255
170
170
170
85
85
85
0
0
0
0
0
0
0
0
0
0
0
0
0
0
0
0
0
0
0
0
0
0
0
0
0
0
0
0
0
0
0
0
0
85
85
85
170
170
170
170
170
170
170
170
170
85
85
85
170
170
170
255
255
255
170
170
170
170
170
170
170
170
170
170
170
170
170
170
170
85
85
85
85
85
85
170
170
170
170
170
170
85
85
85
170
170
170
85
85
85
85
85
85
255
255
255
170
170
170
85
85
85
170
170
170
85
85
85
170
170
170
85
85
85
85
85
85
85
85
85
0
0
0
0
0
0
0
0
0
0
0
0
0
0
0
0
170
170
170
170
170
0
0
0
0
0
0
0
0
0
0
0
0
0
0
0
85
85
85
85
85
85
85
85
85
170
170
170
170
170
170
170
170
170
170
170
170
85
85
85
170
170
170
170
170
170
85
85
85
170
170
170
170
170
170
85
85
85
170
170
170
85
85
85
85
85
85
170
170
170
170
170
170
170
170
170
170
170
170
170
170
170
255
255
255
170
170
170
85
85
85
170
170
170
255
255
255
170
170
170
85
85
85
0
0
0
0
0
0
0
0
0
0
0
0
0
0
0
0
0
0
0
0
0
0
0
0
0
0
0
0
0
0
170
170
170
170
170
170
85
85
85
170
170
170
255
255
255
170
170
170
85
85
85
85
85
85
170
170
170
255
255
255
85
85
85
85
85
85
170
170
170
255
255
255
170
170
170
170
170
170
85
85
85
85
85
85
170
170
170
170
170
170
85
85
85
170
170
170
255
255
255
85
85
85
170
170
170
85
85
85
170
170
170
170
170
170
0
0
0
0
0
0
0
0
0
0
0
0
0
0
0
0
0
0
85
85
85
85
85
85
85
85
85
0
0
0
0
0
0
0
0
0
0
0
0
0
0
0
85
85
85
170
170
170
85
85
85
170
170
170
85
85
85
255
255
255
170
170
170
85
85
85
170
170
170
170
170
170
170
170
170
85
85
85
85
85
85
170
170
170
255
255
255
170
170
170
85
85
85
85
85
85
170
170
170
170
170
170
170
170
170
85
85
85
170
170
170
255
255
255
170
170
170
85
85
85
170
170
170
170
170
170
0
0
0
0
0
0
0
0
0
0
0
0
0
0
0
0
0
0
0
0
0
0
0
0
0
0
0
0
0
0
170
170
170
170
170
170
170
170
170
170
170
170
170
170
170
85
85
85
170
170
170
170
170
170
170
170
170
85
85
85
170
170
170
255
255
255
255
255
255
170
170
170
85
85
85
255
255
255
170
170
170
255
255
255
170
170
170
85
85
85
170
170
170
255
255
255
170
170
170
170
170
170
170
170
170
170
170
170
170
170
170
0
0
0
0
0
0
0
0
0
0
0
0
0
0
0
0
0
0
0
0
0
85
85
85
85
85
85
0
0
0
0
0
0
0
0
0
0
0
0
0
0
0
0
0
0
0
0
0
170
170
170
170
170
170
170
170
170
170
170
170
85
85
85
255
255
255
255
255
255
85
85
85
170
170
170
255
255
255
170
170
170
255
255
255
170
170
170
85
85
85
255
255
255
255
255
255
170
170
170
85
85
85
170
170
170
170
170
170
170
170
170
85
85
85
170
170
170
170
170
170
85
85
85
170
170
170
170
170
170
85
85
85
0
0
0
0
0
0
0
0
0
0
0
0
0
0
0
0
0
0
0
0
0
0
0
0
0
0
0
170
170
170
170
170
170
255
255
255
85
85
85
170
170
170
170
170
170
170
170
170
170
170
170
85
85
85
170
170
170
170
170
170
85
85
85
255
255
255
170
170
170
170
170
170
170
170
170
170
170
170
85
85
85
170
170
170
255
255
255
170
170
170
255
255
255
85
85
85
170
170
170
255
255
255
170
170
170
0
0
0
0
0
0
0
0
0
0
0
0
0
0
0
0
0
0
0
0
0
0
0
0
85
85
85
85
85
85
85
85
85
0
0
0
0
0
0
0
0
0
0
0
0
0
0
0
0
0
0
0
0
0
170
170
170
170
170
170
170
170
170
0
0
0
170
170
170
170
170
170
255
255
255
170
170
170
85
85
85
170
170
170
170
170
170
170
170
170
170
170
170
170
170
170
85
85
85
170
170
170
170
170
170
85
85
85
170
170
170
170
170
170
170
170
170
170
170
170
85
85
85
170
170
170
170
170
170
170
170
170
85
85
85
0
0
0
0
0
0
0
0
0
0
0
0
0
0
0
0
0
0
0
0
0
0
0
0
0
0
0
0
0
0
85
85
85
170
170
170
170
170
170
255
255
255
170
170
170
170
170
170
85
85
85
170
170
170
170
170
170
85
85
85
170
170
170
170
170
170
170
170
170
170
170
170
170
170
170
85
85
85
170
170
170
170
170
170
170
170
170
170
170
170
170
170
170
170
170
170
170
170
170
170
170
170
0
0
0
0
0
0
0
0
0
0
0
0
0
0
0
0
0
0
0
0
0
0
0
0
85
85
85
85
85
85
85
85
85
85
85
85
0
0
0
0
0
0
0
0
0
0
0
0
0
0
0
0
0
0
0
0
0
0
0
0
170
170
170
170
170
170
170
170
170
170
170
170
170
170
170
170
170
170
170
170
170
170
170
170
85
85
85
170
170
170
255
255
255
170
170
170
170
170
170
170
170
170
85
85
85
85
85
85
170
170
170
170
170
170
85
85
85
170
170
170
255
255
255
255
255
255
170
170
170
85
85
85
0
0
0
0
0
0
0
0
0
0
0
0
0
0
0
0
0
0
0
0
0
0
0
0
0
0
0
0
0
0
0
0
0
0
0
0
0
0
0
0
0
0
0
0
0
0
0
0
85
85
85
85
85
85
85
85
85
170
170
170
170
170
170
170
170
170
170
170
170
170
170
170
170
170
170
85
85
85
170
170
170
170
170
170
170
170
170
85
85
85
170
170
170
170
170
170
170
170
170
85
85
85
85
85
85
0
0
0
0
0
0
0
0
0
0
0
0
0
0
0
0
0
0
0
0
0
0
0
0
0
0
0
85
85
85
170
170
170
170
170
170
85
85
85
0
0
0
0
0
0
0
0
0
170
170
170
85
85
85
170
170
170
170
170
170
0
0
0
0
0
0
0
0
0
170
170
170
170
170
170
170
170
170
170
170
170
85
85
85
170
170
170
170
170
170
170
170
170
85
85
85
170
170
170
170
170
170
170
170
170
170
170
170
170
170
170
170
170
170
85
85
85
85
85
85
85
85
85
0
0
0
0
0
0
0
0
0
0
0
0
0
0
0
0
0
0
0
0
0
0
0
0
0
0
0
0
0
0
0
0
0
0
0
0
0
0
0
0
0
0
0
0
0
0
0
0
0
0
0
0
0
0
0
0
0
0
0
0
0
0
0
0
0
0
0
0
0
0
0
0
0
0
0
0
0
0
0
0
0
0
0
0
0
0
0
0
0
0
85
85
85
0
0
0
0
0
0
85
85
85
85
85
85
0
0
0
0
0
0
0
0
0
0
0
0
0
0
0
0
0
0
0
0
0
0
0
0
0
0
0
0
0
0
0
0
0
0
0
0
0
0
0
85
85
85
85
85
85
85
85
85
85
85
85
0
0
0
0
0
0
255
255
255
0
0
0
0
0
0
0
0
0
0
0
0
85
85
85
170
170
170
0
0
0
0
0
0
0
0
0
0
0
0
0
0
0
85
85
85
0
0
0
0
0
0
85
85
85
0
0
0
0
0
0
0
0
0
0
0
0
0
0
0
0
0
0
0
0
0
0
0
0
0
0
0
0
0
0
0
0
0
0
0
0
0
0
0
0
0
0
0
0
0
0
0
0
0
0
0
0
0
0
0
0
0
0
0
0
0
0
0
0
0
0
0
0
0
0
0
0
0
0
0
0
0
0
0
0
0
0
0
0
0
0
0
0
0
0
0
0
0
0
0
0
0
0
0
0
0
0
0
0
0
0
0
0
0
0
0
0
0
0
0
0
0
0
0
0
0
0
0
0
0
0
0
0
0
0
0
0
0
0
0
0
0
0
0
0
0
0
0
0
0
0
0
0
0
0
0
0
0
0
0
0
0
0
0
0
0
0
0
0
0
0
0
0
0
0
0
0
0
0
85
85
85
85
85
85
85
85
85
85
85
85
0
0
0
0
0
0
0
0
0
85
85
85
0
0
0
0
0
0
0
0
0
0
0
0
0
0
0
85
85
85
170
170
170
0
0
0
0
0
0
0
0
0
0
0
0
0
0
0
0
0
0
0
0
0
0
0
0
0
0
0
0
0
0
0
0
0
0
0
0
0
0
0
0
0
0
0
0
0
0
0
0
0
0
0
0
0
0
0
0
0
0
0
0
0
0
0
0
0
0
0
0
0
0
0
0
0
0
0
0
0
0
0
0
0
0
0
0
0
0
0
0
0
0
0
0
0
0
0
0
0
0
0
0
0
0
0
0
0
0
0
0
0
0
0
0
0
0
0
0
0
0
0
0
0
0
0
0
0
0
0
0
0
0
0
0
0
0
0
0
0
0
0
0
0
0
0
0
0
0
0
0
0
0
0
0
0
0
0
0
0
0
0
0
0
0
0
0
0
0
0
0
0
0
0
0
0
0
0
0
0
0
0
0
0
0
0
0
0
0
0
0
0
0
0
0
0
0
0
85
85
85
85
85
85
85
85
85
85
85
85
0
0
0
0
0
0
0
0
0
170
170
170
0
0
0
0
0
0
0
0
0
0
0
0
0
0
0
0
0
0
0
0
0
170
170
170
0
0
0
0
0
0
0
0
0
0
0
0
0
0
0
0
0
0
0
0
0
0
0
0
0
0
0
0
0
0
0
0
0
0
0
0
0
0
0
0
0
0
0
0
0
0
0
0
0
0
0
0
0
0
0
0
0
0
0
0
0
0
0
0
0
0
0
0
0
0
0
0
0
0
0
0
0
0
0
0
0
0
0
0
0
0
0
0
0
0
0
0
0
0
0
0
0
0
0
0
0
0
0
0
0
0
0
0
0
0
0
0
0
0
0
0
0
0
0
0
0
0
0
0
0
0
0
0
0
0
0
0
0
0
0
0
0
0
0
0
0
0
0
0
0
0
0
0
0
0
0
0
0
0
0
0
0
0
0
0
0
0
0
0
0
0
0
0
0
0
0
0
0
0
0
0
0
0
0
0
0
0
0
0
0
0
0
0
0
0
0
0
85
85
85
85
85
85
85
85
85
85
85
85
0
0
0
0
0
0
0
0
0
0
0
0
85
85
85
0
0
0
0
0
0
0
0
0
0
0
0
0
0
0
0
0
0
0
0
0
170
170
170
0
0
0
0
0
0
0
0
0
0
0
0
0
0
0
0
0
0
0
0
0
0
0
0
0
0
0
0
0
0
0
0
0
0
0
0
0
0
0
0
0
0
0
0
0
0
0
0
0
0
0
0
0
0
0
0
0
0
0
0
0
0
0
0
0
0
0
0
0
0
0
0
0
0
0
0
0
0
0
0
0
0
0
0
0
0
0
0
0
0
0
0
0
0
0
0
0
0
0
0
0
0
0
0
0
0
0
0
0
0
0
0
0
0
0
0
0
0
0
0
0
0
0
0
0
0
0
0
0
0
0
0
0
0
0
0
0
0
0
0
0
0
0
0
0
0
0
0
0
0
0
0
0
0
0
0
0
0
0
0
0
0
0
0
0
0
0
0
0
0
0
0
0
0
0
0
0
0
0
0
0
0
0
0
0
0
0
0
0
85
85
85
170
170
170
170
170
170
170
170
170
0
0
0
0
0
0
0
0
0
0
0
0
255
255
255
0
0
0
0
0
0
0
0
0
0
0
0
0
0
0
0
0
0
0
0
0
0
0
0
170
170
170
0
0
0
0
0
0
0
0
0
0
0
0
0
0
0
0
0
0
0
0
0
0
0
0
0
0
0
0
0
0
0
0
0
0
0
0
0
0
0
0
0
0
0
0
0
0
0
0
0
0
0
0
0
0
0
0
0
0
0
0
0
0
0
0
0
0
0
0
0
0
0
0
0
0
0
0
0
0
0
0
0
0
0
0
0
0
0
0
0
0
0
0
0
0
0
0
0
0
0
0
0
0
0
0
0
0
0
0
0
0
0
0
0
0
0
0
0
0
0
0
0
0
0
0
0
0
0
0
0
0
0
0
0
0
0
0
0
0
0
0
0
0
0
0
0
0
0
0
0
0
0
0
0
0
0
0
0
0
0
0
0
0
0
0
0
0
0
0
0
0
0
0
0
0
0
0
0
0
0
0
0
0
0
0
0
0
85
85
85
85
85
85
85
85
85
85
85
85
0
0
0
0
0
0
0
0
0
0
0
0
0
0
0
85
85
85
0
0
0
0
0
0
0
0
0
0
0
0
0
0
0
0
0
0
0
0
0
0
0
0
170
170
170
0
0
0
0
0
0
0
0
0
0
0
0
0
0
0
0
0
0
0
0
0
0
0
0
0
0
0
0
0
0
0
0
0
0
0
0
0
0
0
0
0
0
0
0
0
0
0
0
0
0
0
0
0
0
0
0
0
0
0
0
0
0
0
0
0
0
0
0
0
0
0
0
0
0
0
0
0
0
0
0
0
0
0
0
0
0
0
0
0
0
0
0
0
0
0
0
0
0
0
0
0
0
0
0
0
0
0
0
0
0
0
0
0
0
0
0
0
0
0
0
0
0
0
0
0
0
0
0
0
0
0
0
0
0
0
0
0
0
0
0
0
0
0
0
0
0
0
0
0
0
0
0
0
0
0
0
0
0
0
0
0
0
0
0
0
0
0
0
0
0
0
0
0
0
0
0
0
0
0
0
0
0
0
85
85
85
85
85
85
85
85
85
85
85
85
0
0
0
0
0
0
0
0
0
0
0
0
0
0
0
170
170
170
0
0
0
0
0
0
0
0
0
0
0
0
0
0
0
0
0
0
0
0
0
0
0
0
0
0
0
170
170
170
0
0
0
0
0
0
0
0
0
0
0
0
0
0
0
0
0
0
0
0
0
0
0
0
0
0
0
0
0
0
0
0
0
0
0
0
0
0
0
0
0
0
0
0
0
0
0
0
0
0
0
0
0
0
0
0
0
0
0
0
0
0
0
0
0
0
0
0
0
0
0
0
0
0
0
0
0
0
0
0
0
0
0
0
0
0
0
0
0
0
0
0
0
0
0
0
0
0
0
0
0
0
0
0
0
0
0
0
0
0
0
0
0
0
0
0
0
0
0
0
0
0
0
0
0
0
0
0
0
0
0
0
0
0
0
0
0
0
0
0
0
0
0
0
0
0
0
0
0
0
0
0
0
0
0
0
0
0
0
0
0
0
0
0
0
0
0
0
0
0
0
0
0
0
0
0
0
0
0
0
85
85
85
85
85
85
85
85
85
85
85
85
0
0
0
0
0
0
0
0
0
0
0
0
0
0
0
170
170
170
0
0
0
0
0
0
0
0
0
0
0
0
0
0
0
0
0
0
0
0
0
0
0
0
0
0
0
0
0
0
170
170
170
0
0
0
0
0
0
0
0
0
0
0
0
0
0
0
0
0
0
0
0
0
0
0
0
0
0
0
0
0
0
0
0
0
0
0
0
0
0
0
0
0
0
0
0
0
0
0
0
0
0
0
0
0
0
0
0
0
0
0
0
0
0
0
0
0
0
0
0
0
0
0
0
0
0
0
0
0
0
0
0
0
0
0
0
0
0
0
0
0
0
0
0
0
0
0
0
0
0
0
0
0
0
0
0
0
0
0
0
0
0
0
0
0
0
0
0
0
0
0
0
0
0
0
0
0
0
0
0
0
0
0
0
0
0
0
0
0
0
0
0
0
0
0
0
0
0
0
0
0
0
0
0
0
0
0
0
0
0
0
0
0
0
0
0
0
0
0
0
0
0
0
0
0
0
0
0
0
85
85
85
170
170
170
85
85
85
85
85
85
0
0
0
0
0
0
0
0
0
0
0
0
0
0
0
255
255
255
0
0
0
0
0
0
0
0
0
0
0
0
0
0
0
0
0
0
0
0
0
0
0
0
0
0
0
0
0
0
0
0
0
170
170
170
0
0
0
0
0
0
0
0
0
0
0
0
0
0
0
0
0
0
0
0
0
0
0
0
0
0
0
0
0
0
0
0
0
0
0
0
0
0
0
0
0
0
0
0
0
0
0
0
0
0
0
0
0
0
0
0
0
0
0
0
0
0
0
0
0
0
0
0
0
0
0
0
0
0
0
0
0
0
0
0
0
0
0
0
0
0
0
0
0
0
0
0
0
0
0
0
0
0
0
0
0
0
0
0
0
0
0
0
0
0
0
0
0
0
0
0
0
0
0
0
0
0
0
0
0
0
0
0
0
0
0
0
0
0
0
0
0
0
0
0
0
0
0
0
0
0
0
0
0
0
0
0
0
0
0
0
0
0
0
0
0
0
0
0
0
0
0
0
0
0
0
0
0
0
85
85
85
170
170
170
170
170
170
85
85
85
0
0
0
0
0
0
0
0
0
0
0
0
0
0
0
0
0
0
0
0
0
0
0
0
0
0
0
0
0
0
0
0
0
0
0
0
0
0
0
0
0
0
0
0
0
0
0
0
0
0
0
0
0
0
170
170
170
0
0
0
0
0
0
0
0
0
0
0
0
0
0
0
0
0
0
0
0
0
0
0
0
0
0
0
0
0
0
0
0
0
0
0
0
0
0
0
0
0
0
0
0
0
0
0
0
0
0
0
0
0
0
0
0
0
0
0
0
0
0
0
0
0
0
0
0
0
0
0
0
0
0
0
0
0
0
0
0
0
0
0
0
0
0
0
0
0
0
0
0
0
0
0
0
0
0
0
0
0
0
0
0
0
0
0
0
0
0
0
0
0
0
0
0
0
0
0
0
0
0
0
0
0
0
0
0
0
0
0
0
0
0
0
0
0
0
0
0
0
0
0
0
0
0
0
0
0
0
0
0
0
0
0
0
0
0
0
0
0
0
0
0
0
0
0
0
0
0
0
85
85
85
85
85
85
0
0
0
85
85
85
0
0
0
0
0
0
0
0
0
0
0
0
0
0
0
0
0
0
0
0
0
0
0
0
0
0
0
0
0
0
0
0
0
0
0
0
0
0
0
0
0
0
0
0
0
0
0
0
0
0
0
0
0
0
0
0
0
170
170
170
255
255
255
0
0
0
0
0
0
0
0
0
0
0
0
0
0
0
0
0
0
0
0
0
0
0
0
0
0
0
0
0
0
0
0
0
0
0
0
0
0
0
0
0
0
0
0
0
0
0
0
0
0
0
0
0
0
0
0
0
0
0
0
0
0
0
0
0
0
0
0
0
0
0
0
0
0
0
0
0
0
0
0
0
0
0
0
0
0
0
0
0
0
0
0
0
0
0
0
0
0
0
0
0
0
0
0
0
0
0
0
0
0
0
0
0
0
0
0
0
0
0
0
0
0
0
0
0
0
0
0
0
0
0
0
0
0
0
0
0
0
0
0
0
0
0
0
0
0
0
0
0
0
0
0
0
0
0
0
0
0
0
0
0
0
0
0
0
0
0
0
85
85
85
85
85
85
85
85
85
0
0
0
0
0
0
0
0
0
0
0
0
0
0
0
0
0
0
0
0
0
0
0
0
0
0
0
0
0
0
0
0
0
0
0
0
0
0
0
0
0
0
0
0
0
85
85
85
170
170
170
170
170
170
255
255
255
255
255
255
170
170
170
0
0
0
85
85
85
0
0
0
0
0
0
0
0
0
0
0
0
0
0
0
0
0
0
0
0
0
0
0
0
0
0
0
0
0
0
0
0
0
0
0
0
0
0
0
0
0
0
0
0
0
0
0
0
0
0
0
0
0
0
0
0
0
0
0
0
0
0
0
0
0
0
0
0
0
0
0
0
0
0
0
0
0
0
0
0
0
0
0
0
0
0
0
0
0
0
0
0
0
0
0
0
0
0
0
0
0
0
0
0
0
0
0
0
0
0
0
0
0
0
0
0
0
0
0
0
0
0
0
0
0
0
0
0
0
0
0
0
0
0
0
0
0
0
0
0
0
0
0
0
0
0
0
0
0
0
0
0
0
0
0
0
0
0
0
0
0
0
85
85
85
85
85
85
85
85
85
0
0
0
0
0
0
0
0
0
0
0
0
0
0
0
0
0
0
0
0
0
0
0
0
0
0
0
0
0
0
0
0
0
0
0
0
0
0
0
85
85
85
255
255
255
255
255
255
255
255
255
255
255
255
255
255
255
255
255
255
170
170
170
170
170
170
170
170
170
0
0
0
0
0
0
0
0
0
0
0
0
0
0
0
0
0
0
0
0
0
0
0
0
0
0
0
0
0
0
0
0
0
0
0
0
0
0
0
0
0
0
0
0
0
0
0
0
0
0
0
0
0
0
0
0
0
0
0
0
0
0
0
0
0
0
0
0
0
0
0
0
0
0
0
0
0
0
0
0
0
0
0
0
0
0
0
0
0
0
0
0
0
0
0
0
0
0
0
0
0
0
0
0
0
0
0
0
0
0
0
0
0
0
0
0
0
0
0
0
0
0
0
0
0
0
0
0
0
0
0
0
0
0
0
0
0
0
0
0
0
0
0
0
0
0
0
0
0
0
0
0
0
0
0
0
0
0
0
0
0
0
170
170
170
85
85
85
85
85
85
0
0
0
0
0
0
0
0
0
0
0
0
0
0
0
0
0
0
0
0
0
0
0
0
0
0
0
0
0
0
0
0
0
0
0
0
170
170
170
255
255
255
255
255
255
255
255
255
255
255
255
255
255
255
255
255
255
255
255
255
85
85
85
170
170
170
170
170
170
170
170
170
0
0
0
0
0
0
0
0
0
0
0
0
0
0
0
0
0
0
0
0
0
0
0
0
0
0
0
0
0
0
0
0
0
0
0
0
0
0
0
0
0
0
0
0
0
0
0
0
0
0
0
0
0
0
0
0
0
0
0
0
0
0
0
0
0
0
0
0
0
0
0
0
0
0
0
0
0
0
170
170
170
85
85
85
170
170
170
170
170
170
170
170
170
170
170
170
170
170
170
170
170
170
85
85
85
0
0
0
0
0
0
0
0
0
0
0
0
0
0
0
0
0
0
0
0
0
0
0
0
0
0
0
0
0
0
0
0
0
0
0
0
0
0
0
0
0
0
0
0
0
0
0
0
0
0
0
0
0
0
85
85
85
85
85
85
0
0
0
0
0
0
0
0
0
0
0
0
0
0
0
0
0
0
0
0
0
85
85
85
0
0
0
0
0
0
0
0
0
0
0
0
170
170
170
255
255
255
255
255
255
255
255
255
255
255
255
170
170
170
170
170
170
170
170
170
170
170
170
255
255
255
85
85
85
0
0
0
170
170
170
170
170
170
0
0
0
0
0
0
0
0
0
0
0
0
0
0
0
0
0
0
0
0
0
0
0
0
0
0
0
0
0
0
0
0
0
0
0
0
0
0
0
0
0
0
0
0
0
0
0
0
0
0
0
0
0
0
0
0
0
0
0
0
0
0
0
0
0
0
0
0
0
0
0
0
0
0
0
85
85
85
170
170
170
0
0
0
0
0
0
0
0
0
0
0
0
0
0
0
85
85
85
170
170
170
0
0
0
85
85
85
0
0
0
0
0
0
0
0
0
0
0
0
0
0
0
0
0
0
0
0
0
0
0
0
0
0
0
0
0
0
0
0
0
0
0
0
0
0
0
0
0
0
0
0
0
85
85
85
0
0
0
0
0
0
85
85
85
0
0
0
0
0
0
0
0
0
0
0
0
0
0
0
0
0
0
85
85
85
0
0
0
0
0
0
0
0
0
85
85
85
255
255
255
255
255
255
255
255
255
170
170
170
0
0
0
0
0
0
0
0
0
0
0
0
0
0
0
0
0
0
0
0
0
0
0
0
0
0
0
170
170
170
170
170
170
0
0
0
0
0
0
0
0
0
0
0
0
0
0
0
0
0
0
0
0
0
0
0
0
0
0
0
0
0
0
0
0
0
0
0
0
0
0
0
0
0
0
0
0
0
0
0
0
0
0
0
0
0
0
0
0
0
0
0
0
0
0
0
0
0
0
0
0
0
0
0
0
85
85
85
170
170
170
0
0
0
0
0
0
0
0
0
0
0
0
0
0
0
0
0
0
170
170
170
170
170
170
170
170
170
0
0
0
0
0
0
0
0
0
0
0
0
0
0
0
0
0
0
0
0
0
0
0
0
0
0
0
0
0
0
170
170
170
0
0
0
0
0
0
0
0
0
0
0
0
85
85
85
170
170
170
85
85
85
85
85
85
0
0
0
0
0
0
0
0
0
0
0
0
0
0
0
0
0
0
0
0
0
0
0
0
0
0
0
0
0
0
255
255
255
255
255
255
255
255
255
170
170
170
0
0
0
0
0
0
0
0
0
0
0
0
0
0
0
0
0
0
0
0
0
0
0
0
0
0
0
0
0
0
0
0
0
170
170
170
170
170
170
0
0
0
0
0
0
0
0
0
0
0
0
0
0
0
0
0
0
0
0
0
0
0
0
0
0
0
0
0
0
0
0
0
0
0
0
0
0
0
0
0
0
0
0
0
0
0
0
0
0
0
0
0
0
0
0
0
0
0
0
0
0
0
0
0
0
170
170
170
85
85
85
170
170
170
0
0
0
0
0
0
0
0
0
0
0
0
0
0
0
0
0
0
170
170
170
170
170
170
170
170
170
170
170
170
255
255
255
0
0
0
0
0
0
255
255
255
170
170
170
170
170
170
170
170
170
170
170
170
255
255
255
85
85
85
170
170
170
170
170
170
170
170
170
170
170
170
0
0
0
85
85
85
170
170
170
170
170
170
170
170
170
0
0
0
255
255
255
170
170
170
170
170
170
0
0
0
0
0
0
0
0
0
0
0
0
85
85
85
255
255
255
255
255
255
255
255
255
85
85
85
85
85
85
170
170
170
85
85
85
85
85
85
0
0
0
0
0
0
0
0
0
0
0
0
0
0
0
0
0
0
0
0
0
85
85
85
170
170
170
255
255
255
0
0
0
0
0
0
0
0
0
0
0
0
0
0
0
0
0
0
0
0
0
0
0
0
0
0
0
0
0
0
0
0
0
0
0
0
0
0
0
0
0
0
0
0
0
0
0
0
0
0
0
0
0
0
0
0
0
0
0
0
0
0
0
0
0
0
170
170
170
85
85
85
0
0
0
0
0
0
255
255
255
85
85
85
0
0
0
0
0
0
255
255
255
85
85
85
0
0
0
0
0
0
170
170
170
0
0
0
0
0
0
170
170
170
0
0
0
0
0
0
0
0
0
170
170
170
255
255
255
170
170
170
85
85
85
0
0
0
0
0
0
0
0
0
170
170
170
85
85
85
85
85
85
0
0
0
85
85
85
0
0
0
85
85
85
0
0
0
85
85
85
0
0
0
0
0
0
0
0
0
0
0
0
255
255
255
255
255
255
255
255
255
255
255
255
255
255
255
255
255
255
255
255
255
85
85
85
0
0
0
0
0
0
85
85
85
85
85
85
0
0
0
0
0
0
0
0
0
0
0
0
0
0
0
85
85
85
255
255
255
0
0
0
0
0
0
0
0
0
0
0
0
0
0
0
0
0
0
0
0
0
0
0
0
0
0
0
0
0
0
0
0
0
0
0
0
0
0
0
0
0
0
0
0
0
0
0
0
0
0
0
0
0
0
0
0
0
0
0
0
0
0
0
85
85
85
170
170
170
0
0
0
0
0
0
85
85
85
255
255
255
0
0
0
0
0
0
85
85
85
255
255
255
0
0
0
0
0
0
85
85
85
255
255
255
0
0
0
255
255
255
85
85
85
0
0
0
0
0
0
0
0
0
170
170
170
255
255
255
85
85
85
0
0
0
0
0
0
0
0
0
0
0
0
85
85
85
170
170
170
0
0
0
0
0
0
170
170
170
170
170
170
0
0
0
0
0
0
85
85
85
0
0
0
0
0
0
85
85
85
255
255
255
255
255
255
255
255
255
255
255
255
255
255
255
255
255
255
255
255
255
85
85
85
0
0
0
85
85
85
255
255
255
255
255
255
85
85
85
0
0
0
0
0
0
0
0
0
0
0
0
0
0
0
0
0
0
85
85
85
85
85
85
255
255
255
0
0
0
0
0
0
0
0
0
0
0
0
0
0
0
0
0
0
0
0
0
0
0
0
0
0
0
0
0
0
0
0
0
0
0
0
0
0
0
0
0
0
0
0
0
0
0
0
0
0
0
0
0
0
0
0
0
85
85
85
170
170
170
0
0
0
0
0
0
85
85
85
170
170
170
0
0
0
0
0
0
170
170
170
170
170
170
0
0
0
0
0
0
170
170
170
0
0
0
0
0
0
85
85
85
0
0
0
85
85
85
85
85
85
0
0
0
170
170
170
255
255
255
0
0
0
0
0
0
170
170
170
85
85
85
0
0
0
85
85
85
170
170
170
0
0
0
0
0
0
170
170
170
0
0
0
0
0
0
170
170
170
0
0
0
0
0
0
255
255
255
255
255
255
255
255
255
255
255
255
255
255
255
255
255
255
170
170
170
170
170
170
85
85
85
0
0
0
85
85
85
255
255
255
255
255
255
170
170
170
0
0
0
0
0
0
0
0
0
0
0
0
0
0
0
0
0
0
0
0
0
0
0
0
85
85
85
255
255
255
255
255
255
0
0
0
0
0
0
0
0
0
0
0
0
0
0
0
0
0
0
0
0
0
0
0
0
0
0
0
0
0
0
0
0
0
0
0
0
0
0
0
0
0
0
0
0
0
0
0
0
0
0
0
170
170
170
85
85
85
170
170
170
0
0
0
0
0
0
0
0
0
0
0
0
0
0
0
85
85
85
255
255
255
170
170
170
0
0
0
0
0
0
170
170
170
0
0
0
0
0
0
170
170
170
0
0
0
170
170
170
85
85
85
0
0
0
255
255
255
170
170
170
0
0
0
0
0
0
255
255
255
0
0
0
0
0
0
170
170
170
170
170
170
0
0
0
0
0
0
85
85
85
0
0
0
85
85
85
0
0
0
0
0
0
0
0
0
0
0
0
170
170
170
255
255
255
255
255
255
255
255
255
85
85
85
0
0
0
0
0
0
0
0
0
0
0
0
170
170
170
255
255
255
170
170
170
0
0
0
0
0
0
0
0
0
0
0
0
0
0
0
0
0
0
0
0
0
0
0
0
0
0
0
0
0
0
85
85
85
255
255
255
255
255
255
0
0
0
0
0
0
0
0
0
0
0
0
0
0
0
0
0
0
0
0
0
0
0
0
0
0
0
0
0
0
0
0
0
0
0
0
0
0
0
0
0
0
0
0
0
0
0
0
0
0
0
170
170
170
85
85
85
0
0
0
0
0
0
0
0
0
0
0
0
0
0
0
255
255
255
255
255
255
85
85
85
0
0
0
0
0
0
85
85
85
0
0
0
255
255
255
85
85
85
0
0
0
170
170
170
85
85
85
0
0
0
255
255
255
85
85
85
0
0
0
85
85
85
255
255
255
85
85
85
85
85
85
255
255
255
85
85
85
0
0
0
0
0
0
0
0
0
0
0
0
255
255
255
0
0
0
0
0
0
170
170
170
0
0
0
85
85
85
255
255
255
255
255
255
255
255
255
0
0
0
0
0
0
0
0
0
0
0
0
0
0
0
0
0
0
0
0
0
0
0
0
0
0
0
0
0
0
0
0
0
0
0
0
0
0
0
85
85
85
255
255
255
170
170
170
0
0
0
0
0
0
0
0
0
170
170
170
170
170
170
0
0
0
0
0
0
0
0
0
0
0
0
0
0
0
0
0
0
0
0
0
0
0
0
0
0
0
0
0
0
0
0
0
0
0
0
0
0
0
0
0
0
0
0
0
0
0
0
85
85
85
170
170
170
0
0
0
0
0
0
0
0
0
0
0
0
0
0
0
0
0
0
85
85
85
255
255
255
0
0
0
0
0
0
85
85
85
0
0
0
0
0
0
85
85
85
0
0
0
85
85
85
255
255
255
0
0
0
85
85
85
255
255
255
85
85
85
0
0
0
170
170
170
255
255
255
170
170
170
170
170
170
255
255
255
0
0
0
0
0
0
0
0
0
0
0
0
85
85
85
0
0
0
0
0
0
0
0
0
170
170
170
0
0
0
170
170
170
255
255
255
255
255
255
85
85
85
0
0
0
0
0
0
0
0
0
0
0
0
0
0
0
0
0
0
0
0
0
0
0
0
0
0
0
0
0
0
0
0
0
0
0
0
170
170
170
255
255
255
255
255
255
170
170
170
0
0
0
85
85
85
85
85
85
0
0
0
170
170
170
85
85
85
0
0
0
0
0
0
0
0
0
0
0
0
0
0
0
0
0
0
0
0
0
0
0
0
0
0
0
0
0
0
0
0
0
0
0
0
0
0
0
0
0
0
0
0
0
85
85
85
170
170
170
0
0
0
0
0
0
85
85
85
170
170
170
0
0
0
0
0
0
85
85
85
170
170
170
0
0
0
0
0
0
170
170
170
0
0
0
0
0
0
170
170
170
0
0
0
85
85
85
170
170
170
0
0
0
85
85
85
255
255
255
0
0
0
0
0
0
170
170
170
255
255
255
170
170
170
255
255
255
170
170
170
0
0
0
0
0
0
0
0
0
0
0
0
85
85
85
0
0
0
0
0
0
0
0
0
85
85
85
0
0
0
255
255
255
255
255
255
255
255
255
0
0
0
0
0
0
0
0
0
0
0
0
85
85
85
255
255
255
255
255
255
0
0
0
0
0
0
0
0
0
0
0
0
0
0
0
170
170
170
255
255
255
255
255
255
255
255
255
85
85
85
170
170
170
255
255
255
255
255
255
170
170
170
0
0
0
170
170
170
0
0
0
0
0
0
0
0
0
0
0
0
0
0
0
0
0
0
0
0
0
0
0
0
0
0
0
0
0
0
0
0
0
0
0
0
0
0
0
0
0
0
0
0
0
85
85
85
170
170
170
0
0
0
0
0
0
170
170
170
170
170
170
0
0
0
0
0
0
85
85
85
170
170
170
0
0
0
0
0
0
170
170
170
0
0
0
0
0
0
85
85
85
0
0
0
85
85
85
85
85
85
0
0
0
85
85
85
170
170
170
0
0
0
0
0
0
255
255
255
85
85
85
0
0
0
170
170
170
170
170
170
0
0
0
0
0
0
85
85
85
0
0
0
85
85
85
0
0
0
0
0
0
0
0
0
85
85
85
85
85
85
255
255
255
255
255
255
85
85
85
0
0
0
0
0
0
0
0
0
170
170
170
170
170
170
170
170
170
255
255
255
0
0
0
0
0
0
0
0
0
0
0
0
170
170
170
255
255
255
255
255
255
255
255
255
170
170
170
255
255
255
255
255
255
255
255
255
255
255
255
170
170
170
0
0
0
0
0
0
170
170
170
0
0
0
0
0
0
0
0
0
0
0
0
0
0
0
0
0
0
0
0
0
0
0
0
0
0
0
0
0
0
0
0
0
0
0
0
0
0
0
0
0
0
170
170
170
85
85
85
0
0
0
0
0
0
255
255
255
85
85
85
0
0
0
0
0
0
170
170
170
85
85
85
0
0
0
0
0
0
255
255
255
255
255
255
255
255
255
0
0
0
0
0
0
0
0
0
0
0
0
0
0
0
170
170
170
85
85
85
0
0
0
85
85
85
255
255
255
0
0
0
0
0
0
255
255
255
85
85
85
0
0
0
85
85
85
85
85
85
0
0
0
0
0
0
0
0
0
0
0
0
0
0
0
85
85
85
170
170
170
255
255
255
255
255
255
0
0
0
0
0
0
0
0
0
170
170
170
255
255
255
170
170
170
85
85
85
170
170
170
0
0
0
0
0
0
85
85
85
255
255
255
170
170
170
0
0
0
170
170
170
255
255
255
255
255
255
255
255
255
170
170
170
255
255
255
255
255
255
85
85
85
0
0
0
85
85
85
255
255
255
85
85
85
255
255
255
0
0
0
0
0
0
0
0
0
0
0
0
0
0
0
0
0
0
0
0
0
0
0
0
0
0
0
0
0
0
0
0
0
85
85
85
170
170
170
0
0
0
0
0
0
0
0
0
85
85
85
0
0
0
0
0
0
0
0
0
255
255
255
0
0
0
0
0
0
85
85
85
170
170
170
255
255
255
170
170
170
0
0
0
0
0
0
0
0
0
0
0
0
0
0
0
170
170
170
85
85
85
0
0
0
85
85
85
170
170
170
0
0
0
85
85
85
255
255
255
0
0
0
0
0
0
170
170
170
170
170
170
0
0
0
0
0
0
0
0
0
0
0
0
85
85
85
0
0
0
255
255
255
255
255
255
170
170
170
0
0
0
0
0
0
170
170
170
170
170
170
85
85
85
170
170
170
170
170
170
170
170
170
0
0
0
85
85
85
255
255
255
170
170
170
0
0
0
85
85
85
255
255
255
255
255
255
170
170
170
0
0
0
170
170
170
255
255
255
255
255
255
0
0
0
85
85
85
255
255
255
170
170
170
0
0
0
255
255
255
0
0
0
0
0
0
0
0
0
0
0
0
0
0
0
0
0
0
0
0
0
0
0
0
0
0
0
0
0
0
0
0
0
85
85
85
170
170
170
0
0
0
0
0
0
0
0
0
0
0
0
0
0
0
0
0
0
170
170
170
170
170
170
0
0
0
0
0
0
0
0
0
0
0
0
170
170
170
85
85
85
0
0
0
170
170
170
255
255
255
0
0
0
0
0
0
170
170
170
85
85
85
0
0
0
0
0
0
0
0
0
0
0
0
170
170
170
170
170
170
0
0
0
0
0
0
255
255
255
170
170
170
0
0
0
0
0
0
255
255
255
0
0
0
170
170
170
85
85
85
255
255
255
255
255
255
85
85
85
0
0
0
170
170
170
170
170
170
0
0
0
0
0
0
170
170
170
170
170
170
255
255
255
255
255
255
255
255
255
85
85
85
0
0
0
0
0
0
255
255
255
255
255
255
170
170
170
0
0
0
0
0
0
255
255
255
255
255
255
170
170
170
170
170
170
255
255
255
85
85
85
0
0
0
0
0
0
0
0
0
170
170
170
85
85
85
0
0
0
0
0
0
0
0
0
0
0
0
0
0
0
0
0
0
0
0
0
0
0
0
0
0
0
85
85
85
170
170
170
0
0
0
0
0
0
0
0
0
0
0
0
0
0
0
170
170
170
255
255
255
170
170
170
0
0
0
0
0
0
0
0
0
0
0
0
255
255
255
0
0
0
0
0
0
255
255
255
255
255
255
0
0
0
0
0
0
255
255
255
170
170
170
0
0
0
0
0
0
0
0
0
170
170
170
255
255
255
170
170
170
0
0
0
0
0
0
255
255
255
170
170
170
0
0
0
0
0
0
170
170
170
85
85
85
170
170
170
170
170
170
170
170
170
170
170
170
0
0
0
85
85
85
85
85
85
0
0
0
0
0
0
0
0
0
85
85
85
255
255
255
255
255
255
170
170
170
0
0
0
0
0
0
0
0
0
170
170
170
255
255
255
170
170
170
0
0
0
0
0
0
85
85
85
255
255
255
255
255
255
255
255
255
255
255
255
85
85
85
0
0
0
0
0
0
0
0
0
0
0
0
85
85
85
170
170
170
0
0
0
0
0
0
0
0
0
0
0
0
0
0
0
0
0
0
0
0
0
0
0
0
0
0
0
85
85
85
170
170
170
170
170
170
170
170
170
170
170
170
170
170
170
255
255
255
255
255
255
255
255
255
255
255
255
255
255
255
255
255
255
255
255
255
170
170
170
255
255
255
170
170
170
170
170
170
255
255
255
255
255
255
170
170
170
170
170
170
255
255
255
255
255
255
170
170
170
170
170
170
170
170
170
255
255
255
255
255
255
170
170
170
170
170
170
170
170
170
170
170
170
170
170
170
170
170
170
170
170
170
170
170
170
170
170
170
85
85
85
170
170
170
170
170
170
170
170
170
0
0
0
0
0
0
0
0
0
0
0
0
0
0
0
0
0
0
0
0
0
85
85
85
0
0
0
0
0
0
0
0
0
0
0
0
85
85
85
255
255
255
170
170
170
0
0
0
0
0
0
0
0
0
0
0
0
255
255
255
255
255
255
255
255
255
85
85
85
0
0
0
0
0
0
0
0
0
0
0
0
0
0
0
0
0
0
85
85
85
0
0
0
0
0
0
0
0
0
0
0
0
0
0
0
0
0
0
0
0
0
0
0
0
0
0
0
0
0
0
0
0
0
0
0
0
0
0
0
0
0
0
85
85
85
255
255
255
0
0
0
0
0
0
0
0
0
0
0
0
0
0
0
0
0
0
0
0
0
0
0
0
0
0
0
0
0
0
0
0
0
0
0
0
0
0
0
0
0
0
0
0
0
0
0
0
0
0
0
0
0
0
0
0
0
0
0
0
0
0
0
0
0
0
0
0
0
255
255
255
85
85
85
0
0
0
0
0
0
0
0
0
85
85
85
170
170
170
85
85
85
170
170
170
170
170
170
85
85
85
0
0
0
0
0
0
0
0
0
0
0
0
0
0
0
0
0
0
0
0
0
0
0
0
0
0
0
0
0
0
0
0
0
0
0
0
85
85
85
170
170
170
0
0
0
0
0
0
0
0
0
0
0
0
0
0
0
85
85
85
170
170
170
0
0
0
0
0
0
0
0
0
0
0
0
0
0
0
0
0
0
0
0
0
0
0
0
0
0
0
0
0
0
0
0
0
0
0
0
0
0
0
0
0
0
0
0
0
0
0
0
0
0
0
0
0
0
0
0
0
0
0
0
0
0
0
0
0
0
0
0
0
0
0
0
0
0
0
0
0
0
0
0
0
0
0
0
0
0
0
0
0
0
0
0
0
0
0
0
0
0
0
0
0
0
0
0
0
0
0
0
0
0
0
0
0
0
0
0
0
0
0
0
0
0
0
0
0
0
0
0
0
0
0
0
0
0
0
0
0
0
0
0
0
0
0
0
0
0
0
85
85
85
0
0
0
0
0
0
85
85
85
170
170
170
170
170
170
170
170
170
170
170
170
170
170
170
0
0
0
0
0
0
0
0
0
0
0
0
0
0
0
0
0
0
0
0
0
0
0
0
0
0
0
0
0
0
0
0
0
0
0
0
0
0
0
0
0
0
0
0
0
0
0
0
0
0
0
0
0
0
0
0
0
0
0
0
0
0
0
0
0
0
0
0
0
0
0
0
0
0
0
0
0
0
0
0
0
0
0
0
0
0
0
0
0
0
0
0
0
0
0
0
0
0
0
0
0
0
0
0
0
0
0
0
0
0
0
0
0
0
0
0
0
0
0
0
0
0
0
0
0
0
0
0
0
0
0
0
0
0
0
0
0
0
0
0
0
0
0
0
0
0
0
0
0
0
0
0
0
0
0
0
0
0
0
0
0
0
0
0
0
0
0
0
0
0
0
0
0
0
0
0
0
0
0
0
0
0
0
0
0
0
0
0
0
0
0
0
0
0
0
0
0
0
0
0
0
0
0
0
0
0
0
0
0
0
0
0
0
0
0
0
85
85
85
85
85
85
170
170
170
170
170
170
0
0
0
170
170
170
255
255
255
170
170
170
0
0
0
0
0
0
0
0
0
0
0
0
0
0
0
0
0
0
0
0
0
0
0
0
0
0
0
0
0
0
0
0
0
0
0
0
0
0
0
0
0
0
0
0
0
0
0
0
0
0
0
0
0
0
0
0
0
0
0
0
0
0
0
0
0
0
0
0
0
0
0
0
0
0
0
0
0
0
0
0
0
0
0
0
0
0
0
0
0
0
0
0
0
0
0
0
0
0
0
0
0
0
0
0
0
0
0
0
0
0
0
0
0
0
0
0
0
0
0
0
0
0
0
0
0
0
0
0
0
0
0
0
0
0
0
0
0
0
0
0
0
0
0
0
0
0
0
0
0
0
0
0
0
0
0
0
0
0
0
0
0
0
0
0
0
0
0
0
0
0
0
0
0
0
0
0
0
0
0
0
0
0
0
0
0
0
0
0
0
0
0
0
0
0
0
0
0
0
0
0
0
0
0
0
0
0
0
0
0
0
170
170
170
85
85
85
85
85
85
170
170
170
170
170
170
0
0
0
0
0
0
255
255
255
255
255
255
85
85
85
0
0
0
0
0
0
0
0
0
0
0
0
0
0
0
0
0
0
0
0
0
0
0
0
0
0
0
0
0
0
0
0
0
0
0
0
0
0
0
0
0
0
0
0
0
0
0
0
0
0
0
0
0
0
0
0
0
0
0
0
0
0
0
0
0
0
0
0
0
0
0
0
0
0
0
0
0
0
0
0
0
0
0
0
0
0
0
0
0
0
0
0
0
0
0
0
0
0
0
0
0
0
0
0
0
0
0
0
0
0
0
0
0
0
0
0
0
0
0
0
0
0
0
0
0
0
0
0
0
0
0
0
0
0
0
0
0
0
0
0
0
0
0
0
0
0
0
0
0
0
0
0
0
0
0
0
0
0
0
0
0
0
0
0
0
0
0
0
0
0
0
0
0
0
0
0
0
0
0
0
0
0
0
0
0
0
0
0
0
0
0
0
0
0
0
0
0
0
0
0
0
0
0
0
0
0
0
0
0
0
255
255
255
0
0
0
85
85
85
170
170
170
0
0
0
0
0
0
85
85
85
255
255
255
170
170
170
0
0
0
0
0
0
0
0
0
0
0
0
0
0
0
0
0
0
0
0
0
0
0
0
0
0
0
0
0
0
0
0
0
0
0
0
0
0
0
0
0
0
0
0
0
0
0
0
0
0
0
0
0
0
0
0
0
0
0
0
0
0
0
0
0
0
0
0
0
0
0
0
0
0
0
0
0
0
0
0
0
0
0
0
0
0
0
0
0
0
0
0
0
0
0
0
0
0
0
0
0
0
0
0
0
0
0
0
0
0
0
0
0
0
0
0
0
0
0
0
0
0
0
0
0
0
0
0
0
0
0
0
0
0
0
0
0
0
0
0
0
0
0
0
0
0
0
0
0
0
0
0
0
0
0
0
0
0
0
0
0
0
0
0
0
0
0
0
0
0
0
0
0
0
0
0
0
0
0
0
0
0
0
0
0
0
0
0
0
0
0
0
0
0
0
0
0
0
0
0
0
0
0
0
0
0
0
0
0
0
0
0
0
0
0
0
0
0
0
85
85
85
170
170
170
0
0
0
0
0
0
85
85
85
255
255
255
170
170
170
0
0
0
0
0
0
0
0
0
0
0
0
0
0
0
0
0
0
0
0
0
0
0
0
0
0
0
0
0
0
0
0
0
0
0
0
0
0
0
0
0
0
0
0
0
0
0
0
0
0
0
0
0
0
0
0
0
0
0
0
0
0
0
0
0
0
0
0
0
0
0
0
0
0
0
0
0
0
0
0
0
0
0
0
0
0
0
0
0
0
0
0
0
0
0
0
