P3
# CREATOR: GIMP PNM Filter Version 1.1
40 40
255
0
0
0
0
0
0
0
0
0
0
0
0
0
0
0
0
0
0
0
0
0
0
0
0
0
0
0
0
0
0
0
0
0
1
1
1
13
13
13
45
45
45
54
54
54
72
72
72
96
96
96
94
94
94
90
90
90
86
86
86
86
86
86
90
90
90
94
94
94
96
96
96
72
72
72
54
54
54
45
45
45
13
13
13
1
1
1
0
0
0
0
0
0
0
0
0
0
0
0
0
0
0
0
0
0
0
0
0
0
0
0
0
0
0
0
0
0
0
0
0
0
0
0
0
0
0
0
0
0
0
0
0
0
0
0
0
0
0
0
0
0
0
0
0
0
0
0
1
1
1
20
20
20
72
72
72
92
92
92
96
96
96
140
140
140
170
170
170
168
168
168
170
170
170
166
166
166
183
183
183
187
187
187
166
166
166
170
170
170
168
168
168
170
170
170
140
140
140
97
97
97
92
92
92
72
72
72
20
20
20
1
1
1
0
0
0
0
0
0
0
0
0
0
0
0
0
0
0
0
0
0
0
0
0
0
0
0
0
0
0
0
0
0
0
0
0
0
0
0
0
0
0
0
0
0
0
0
0
0
0
0
0
0
0
7
7
7
41
41
41
94
94
94
118
118
118
170
170
170
162
162
162
172
172
172
147
147
147
223
223
223
226
226
226
226
226
226
226
226
226
226
226
226
226
226
226
226
226
226
223
223
223
151
151
151
172
172
172
162
162
162
168
168
168
118
118
118
94
94
94
41
41
41
7
7
7
0
0
0
0
0
0
0
0
0
0
0
0
0
0
0
0
0
0
0
0
0
0
0
0
0
0
0
0
0
0
0
0
0
0
0
0
0
0
0
0
0
0
0
0
0
9
9
9
77
77
77
96
96
96
166
166
166
152
152
152
181
181
181
225
225
225
224
224
224
145
145
145
207
207
207
226
226
226
226
226
226
226
226
226
226
226
226
226
226
226
226
226
226
204
204
204
145
145
145
219
219
219
225
225
225
181
181
181
156
156
156
166
166
166
95
95
95
76
76
76
9
9
9
0
0
0
0
0
0
0
0
0
0
0
0
0
0
0
0
0
0
0
0
0
0
0
0
0
0
0
0
0
0
0
0
0
0
0
0
2
2
2
48
48
48
56
56
56
130
130
130
168
168
168
173
173
173
226
226
226
226
226
226
226
226
226
156
156
156
166
166
166
170
170
170
226
226
226
226
226
226
226
226
226
226
226
226
226
226
226
226
226
226
98
98
98
192
192
192
197
197
197
226
226
226
226
226
226
226
226
226
173
173
173
166
166
166
130
130
130
59
59
59
48
48
48
2
2
2
0
0
0
0
0
0
0
0
0
0
0
0
0
0
0
0
0
0
0
0
0
0
0
0
0
0
0
2
2
2
52
52
52
96
96
96
150
150
150
151
151
151
208
208
208
208
208
208
171
171
171
226
226
226
226
226
226
134
134
134
140
140
140
127
127
127
222
222
222
226
226
226
226
226
226
226
226
226
226
226
226
226
226
226
95
95
95
148
148
148
150
150
150
226
226
226
225
225
225
149
149
149
209
209
209
208
208
208
158
158
158
151
151
151
99
99
99
56
56
56
2
2
2
0
0
0
0
0
0
0
0
0
0
0
0
0
0
0
0
0
0
0
0
0
2
2
2
56
56
56
96
96
96
161
161
161
156
156
156
220
220
220
226
226
226
124
124
124
109
109
109
193
193
193
226
226
226
129
129
129
136
136
136
135
135
135
208
208
208
226
226
226
226
226
226
226
226
226
226
226
226
223
223
223
124
124
124
127
127
127
136
136
136
226
226
226
226
226
226
103
103
103
110
110
110
210
210
210
220
220
220
156
156
156
162
162
162
97
97
97
56
56
56
2
2
2
0
0
0
0
0
0
0
0
0
0
0
0
0
0
0
0
0
0
18
18
18
98
98
98
150
150
150
156
156
156
224
224
224
203
203
203
130
130
130
205
205
205
137
137
137
173
173
173
226
226
226
106
106
106
100
100
100
143
143
143
196
196
196
226
226
226
226
226
226
226
226
226
226
226
226
220
220
220
114
114
114
95
95
95
148
148
148
226
226
226
188
188
188
108
108
108
217
217
217
78
78
78
202
202
202
225
225
225
156
156
156
150
150
150
96
96
96
18
18
18
0
0
0
0
0
0
0
0
0
0
0
0
0
0
0
8
8
8
83
83
83
126
126
126
154
154
154
219
219
219
168
168
168
196
196
196
100
100
100
82
82
82
199
199
199
226
226
226
226
226
226
106
106
106
100
100
100
143
143
143
196
196
196
226
226
226
205
205
205
201
201
201
226
226
226
220
220
220
114
114
114
95
95
95
148
148
148
226
226
226
226
226
226
220
220
220
122
122
122
190
190
190
152
152
152
203
203
203
219
219
219
161
161
161
121
121
121
85
85
85
8
8
8
0
0
0
0
0
0
0
0
0
0
0
0
41
41
41
94
94
94
162
162
162
203
203
203
185
185
185
83
83
83
142
142
142
156
156
156
223
223
223
226
226
226
226
226
226
194
194
194
136
136
136
134
134
134
152
152
152
171
171
171
226
226
226
211
211
211
211
211
211
226
226
226
186
186
186
139
139
139
132
132
132
154
154
154
194
194
194
226
226
226
226
226
226
198
198
198
166
166
166
190
190
190
76
76
76
191
191
191
203
203
203
166
166
166
91
91
91
41
41
41
0
0
0
0
0
0
0
0
0
14
14
14
65
65
65
161
161
161
169
169
169
214
214
214
128
128
128
212
212
212
116
116
116
206
206
206
226
226
226
226
226
226
226
226
226
183
183
183
151
151
151
155
155
155
158
158
158
157
157
157
226
226
226
211
211
211
211
211
211
226
226
226
164
164
164
158
158
158
156
156
156
152
152
152
178
178
178
226
226
226
226
226
226
226
226
226
216
216
216
86
86
86
64
64
64
134
134
134
226
226
226
165
165
165
161
161
161
65
65
65
14
14
14
0
0
0
0
0
0
75
75
75
111
111
111
150
150
150
222
222
222
180
180
180
141
141
141
76
76
76
210
210
210
226
226
226
226
226
226
226
226
226
226
226
226
196
196
196
166
166
166
94
94
94
168
168
168
167
167
167
226
226
226
198
198
198
186
186
186
226
226
226
167
167
167
170
170
170
72
72
72
168
168
168
194
194
194
226
226
226
226
226
226
226
226
226
226
226
226
192
192
192
141
141
141
197
197
197
134
134
134
222
222
222
157
157
157
106
106
106
75
75
75
0
0
0
8
8
8
70
70
70
164
164
164
173
173
173
209
209
209
110
110
110
85
85
85
177
177
177
226
226
226
226
226
226
226
226
226
226
226
226
226
226
226
186
186
186
152
152
152
119
119
119
153
153
153
157
157
157
226
226
226
170
170
170
158
158
158
226
226
226
160
160
160
153
153
153
112
112
112
154
154
154
185
185
185
226
226
226
226
226
226
226
226
226
226
226
226
226
226
226
149
149
149
91
91
91
193
193
193
226
226
226
173
173
173
159
159
159
71
71
71
8
8
8
14
14
14
87
87
87
161
161
161
222
222
222
224
224
224
144
144
144
149
149
149
205
205
205
226
226
226
226
226
226
226
226
226
226
226
226
226
226
226
190
190
190
169
169
169
169
169
169
172
172
172
171
171
171
226
226
226
131
131
131
123
123
123
226
226
226
158
158
158
172
172
172
169
169
169
169
169
169
186
186
186
226
226
226
226
226
226
226
226
226
226
226
226
226
226
226
213
213
213
144
144
144
79
79
79
169
169
169
218
218
218
165
165
165
87
87
87
15
15
15
64
64
64
122
122
122
171
171
171
224
224
224
106
106
106
101
101
101
148
148
148
226
226
226
226
226
226
226
226
226
226
226
226
226
226
226
226
226
226
194
194
194
149
149
149
126
126
126
155
155
155
167
167
167
226
226
226
162
162
162
162
162
162
226
226
226
136
136
136
158
158
158
129
129
129
148
148
148
194
194
194
226
226
226
226
226
226
226
226
226
226
226
226
226
226
226
226
226
226
154
154
154
226
226
226
142
142
142
226
226
226
168
168
168
124
124
124
68
68
68
44
44
44
162
162
162
170
170
170
196
196
196
83
83
83
53
53
53
207
207
207
226
226
226
226
226
226
226
226
226
226
226
226
226
226
226
226
226
226
194
194
194
138
138
138
124
124
124
144
144
144
167
167
167
224
224
224
126
126
126
130
130
130
224
224
224
136
136
136
144
144
144
123
123
123
138
138
138
194
194
194
226
226
226
226
226
226
226
226
226
226
226
226
226
226
226
226
226
226
205
205
205
188
188
188
166
166
166
191
191
191
173
173
173
163
163
163
45
45
45
106
106
106
168
168
168
205
205
205
178
178
178
220
220
220
147
147
147
225
225
225
226
226
226
226
226
226
226
226
226
226
226
226
226
226
226
226
226
226
176
176
176
155
155
155
166
166
166
156
156
156
156
156
156
147
147
147
165
165
165
165
165
165
143
143
143
138
138
138
160
160
160
166
166
166
155
155
155
184
184
184
226
226
226
226
226
226
226
226
226
226
226
226
226
226
226
226
226
226
222
222
222
78
78
78
74
74
74
169
169
169
202
202
202
173
173
173
108
108
108
94
94
94
168
168
168
226
226
226
137
137
137
82
82
82
147
147
147
226
226
226
226
226
226
226
226
226
226
226
226
226
226
226
226
226
226
226
226
226
162
162
162
145
145
145
196
196
196
150
150
150
125
125
125
152
152
152
152
152
152
152
152
152
152
152
152
121
121
121
144
144
144
196
196
196
145
145
145
162
162
162
226
226
226
226
226
226
226
226
226
226
226
226
226
226
226
226
226
226
226
226
226
161
161
161
208
208
208
191
191
191
226
226
226
168
168
168
93
93
93
91
91
91
166
166
166
226
226
226
165
165
165
146
146
146
150
150
150
226
226
226
226
226
226
226
226
226
226
226
226
226
226
226
226
226
226
226
226
226
166
166
166
166
166
166
190
190
190
173
173
173
136
136
136
150
150
150
150
150
150
150
150
150
150
150
150
137
137
137
166
166
166
195
195
195
166
166
166
166
166
166
226
226
226
226
226
226
226
226
226
226
226
226
226
226
226
226
226
226
226
226
226
174
174
174
146
146
146
114
114
114
226
226
226
166
166
166
99
99
99
86
86
86
182
182
182
226
226
226
154
154
154
124
124
124
186
186
186
226
226
226
226
226
226
226
226
226
226
226
226
226
226
226
226
226
226
226
226
226
166
166
166
166
166
166
166
166
166
173
173
173
147
147
147
196
196
196
163
163
163
148
148
148
196
196
196
154
154
154
166
166
166
175
175
175
166
166
166
166
166
166
226
226
226
226
226
226
226
226
226
226
226
226
226
226
226
226
226
226
226
226
226
197
197
197
70
70
70
157
157
157
226
226
226
176
176
176
76
76
76
86
86
86
182
182
182
226
226
226
84
84
84
141
141
141
216
216
216
226
226
226
226
226
226
226
226
226
226
226
226
226
226
226
226
226
226
226
226
226
158
158
158
130
130
130
166
166
166
134
134
134
137
137
137
226
226
226
132
132
132
96
96
96
226
226
226
140
140
140
130
130
130
166
166
166
130
130
130
158
158
158
226
226
226
226
226
226
226
226
226
226
226
226
226
226
226
226
226
226
226
226
226
168
168
168
162
162
162
188
188
188
226
226
226
176
176
176
76
76
76
91
91
91
166
166
166
226
226
226
143
143
143
104
104
104
128
128
128
226
226
226
226
226
226
226
226
226
226
226
226
226
226
226
226
226
226
226
226
226
166
166
166
166
166
166
194
194
194
173
173
173
130
130
130
226
226
226
134
134
134
96
96
96
226
226
226
136
136
136
166
166
166
194
194
194
166
166
166
166
166
166
226
226
226
226
226
226
226
226
226
226
226
226
226
226
226
226
226
226
226
226
226
154
154
154
77
77
77
141
141
141
226
226
226
166
166
166
103
103
103
93
93
93
168
168
168
226
226
226
170
170
170
164
164
164
149
149
149
226
226
226
226
226
226
226
226
226
226
226
226
226
226
226
226
226
226
226
226
226
166
166
166
166
166
166
172
172
172
173
173
173
130
130
130
226
226
226
152
152
152
139
139
139
226
226
226
136
136
136
166
166
166
172
172
172
166
166
166
166
166
166
226
226
226
226
226
226
226
226
226
226
226
226
226
226
226
226
226
226
226
226
226
177
177
177
168
168
168
176
176
176
226
226
226
168
168
168
93
93
93
106
106
106
172
172
172
205
205
205
186
186
186
87
87
87
171
171
171
222
222
222
226
226
226
226
226
226
226
226
226
226
226
226
226
226
226
226
226
226
160
160
160
139
139
139
178
178
178
143
143
143
115
115
115
178
178
178
178
178
178
178
178
178
178
178
178
120
120
120
139
139
139
178
178
178
139
139
139
156
156
156
226
226
226
226
226
226
226
226
226
226
226
226
226
226
226
226
226
226
222
222
222
82
82
82
83
83
83
172
172
172
198
198
198
173
173
173
108
108
108
44
44
44
163
163
163
177
177
177
198
198
198
96
96
96
168
168
168
210
210
210
226
226
226
226
226
226
226
226
226
226
226
226
226
226
226
226
226
226
164
164
164
158
158
158
177
177
177
164
164
164
123
123
123
158
158
158
213
213
213
213
213
213
154
154
154
129
129
129
158
158
158
181
181
181
158
158
158
164
164
164
226
226
226
226
226
226
226
226
226
226
226
226
226
226
226
226
226
226
181
181
181
182
182
182
196
196
196
202
202
202
169
169
169
158
158
158
50
50
50
66
66
66
123
123
123
168
168
168
226
226
226
146
146
146
182
182
182
147
147
147
226
226
226
226
226
226
226
226
226
226
226
226
226
226
226
226
226
226
166
166
166
166
166
166
172
172
172
173
173
173
130
130
130
135
135
135
224
224
224
224
224
224
138
138
138
136
136
136
166
166
166
176
176
176
166
166
166
166
166
166
226
226
226
226
226
226
226
226
226
226
226
226
226
226
226
226
226
226
167
167
167
68
68
68
131
131
131
226
226
226
167
167
167
120
120
120
68
68
68
15
15
15
87
87
87
165
165
165
218
218
218
176
176
176
83
83
83
134
134
134
226
226
226
226
226
226
226
226
226
226
226
226
226
226
226
226
226
226
166
166
166
166
166
166
226
226
226
173
173
173
130
130
130
226
226
226
226
226
226
226
226
226
226
226
226
136
136
136
166
166
166
226
226
226
166
166
166
166
166
166
226
226
226
226
226
226
226
226
226
226
226
226
226
226
226
226
226
226
226
226
226
212
212
212
177
177
177
217
217
217
161
161
161
84
84
84
15
15
15
8
8
8
71
71
71
159
159
159
173
173
173
206
206
206
218
218
218
226
226
226
226
226
226
226
226
226
226
226
226
226
226
226
226
226
226
226
226
226
166
166
166
166
166
166
226
226
226
173
173
173
130
130
130
226
226
226
226
226
226
226
226
226
226
226
226
136
136
136
166
166
166
226
226
226
166
166
166
166
166
166
226
226
226
226
226
226
226
226
226
226
226
226
226
226
226
226
226
226
226
226
226
226
226
226
226
226
226
174
174
174
157
157
157
76
76
76
8
8
8
0
0
0
75
75
75
99
99
99
157
157
157
166
166
166
166
166
166
166
166
166
166
166
166
166
166
166
166
166
166
166
166
166
166
166
166
166
166
166
140
140
140
140
140
140
166
166
166
143
143
143
124
124
124
166
166
166
166
166
166
166
166
166
166
166
166
127
127
127
140
140
140
166
166
166
140
140
140
140
140
140
166
166
166
166
166
166
166
166
166
166
166
166
166
166
166
166
166
166
166
166
166
166
166
166
165
165
165
157
157
157
95
95
95
42
42
42
0
0
0
0
0
0
14
14
14
64
64
64
156
156
156
133
133
133
166
166
166
166
166
166
166
166
166
166
166
166
166
166
166
166
166
166
166
166
166
166
166
166
166
166
166
166
166
166
166
166
166
166
166
166
166
166
166
166
166
166
145
145
145
156
156
156
166
166
166
166
166
166
166
166
166
166
166
166
166
166
166
166
166
166
166
166
166
166
166
166
166
166
166
166
166
166
166
166
166
166
166
166
166
166
166
166
166
166
135
135
135
157
157
157
63
63
63
6
6
6
0
0
0
0
0
0
0
0
0
42
42
42
92
92
92
168
168
168
150
150
150
180
180
180
188
188
188
179
179
179
174
174
174
182
182
182
186
186
186
174
174
174
161
161
161
208
208
208
157
157
157
170
170
170
206
206
206
152
152
152
145
145
145
138
138
138
164
164
164
206
206
206
162
162
162
169
169
169
209
209
209
161
161
161
174
174
174
193
193
193
179
179
179
177
177
177
180
180
180
184
184
184
174
174
174
148
148
148
168
168
168
92
92
92
43
43
43
0
0
0
0
0
0
0
0
0
0
0
0
8
8
8
88
88
88
123
123
123
164
164
164
219
219
219
158
158
158
169
169
169
226
226
226
173
173
173
158
158
158
226
226
226
210
210
210
144
144
144
226
226
226
226
226
226
132
132
132
165
165
165
129
129
129
141
141
141
161
161
161
156
156
156
226
226
226
226
226
226
132
132
132
214
214
214
226
226
226
162
162
162
169
169
169
226
226
226
185
185
185
166
166
166
219
219
219
157
157
157
116
116
116
88
88
88
8
8
8
0
0
0
0
0
0
0
0
0
0
0
0
0
0
0
19
19
19
98
98
98
146
146
146
147
147
147
221
221
221
224
224
224
226
226
226
224
224
224
222
222
222
226
226
226
226
226
226
221
221
221
226
226
226
226
226
226
221
221
221
196
196
196
110
110
110
132
132
132
196
196
196
222
222
222
226
226
226
226
226
226
221
221
221
226
226
226
226
226
226
222
222
222
224
224
224
226
226
226
224
224
224
221
221
221
147
147
147
144
144
144
97
97
97
19
19
19
0
0
0
0
0
0
0
0
0
0
0
0
0
0
0
0
0
0
2
2
2
20
20
20
86
86
86
158
158
158
149
149
149
220
220
220
226
226
226
157
157
157
153
153
153
141
141
141
150
150
150
170
170
170
158
158
158
156
156
156
185
185
185
170
170
170
141
141
141
152
152
152
163
163
163
176
176
176
172
172
172
122
122
122
172
172
172
171
171
171
160
160
160
158
158
158
163
163
163
226
226
226
220
220
220
147
147
147
153
153
153
88
88
88
21
21
21
2
2
2
0
0
0
0
0
0
0
0
0
0
0
0
0
0
0
0
0
0
0
0
0
2
2
2
56
56
56
92
92
92
149
149
149
156
156
156
199
199
199
145
145
145
153
153
153
133
133
133
142
142
142
190
190
190
153
153
153
159
159
159
202
202
202
170
170
170
131
131
131
156
156
156
180
180
180
188
188
188
148
148
148
127
127
127
172
172
172
153
153
153
157
157
157
154
154
154
160
160
160
199
199
199
157
157
157
145
145
145
84
84
84
56
56
56
2
2
2
0
0
0
0
0
0
0
0
0
0
0
0
0
0
0
0
0
0
0
0
0
0
0
0
0
0
0
2
2
2
50
50
50
62
62
62
121
121
121
165
165
165
172
172
172
224
224
224
226
226
226
226
226
226
226
226
226
226
226
226
226
226
226
226
226
226
124
124
124
139
139
139
141
141
141
120
120
120
172
172
172
226
226
226
226
226
226
226
226
226
226
226
226
226
226
226
224
224
224
172
172
172
165
165
165
121
121
121
54
54
54
13
13
13
1
1
1
0
0
0
0
0
0
0
0
0
0
0
0
0
0
0
0
0
0
0
0
0
0
0
0
0
0
0
0
0
0
0
0
0
0
0
0
10
10
10
81
81
81
93
93
93
162
162
162
162
162
162
177
177
177
224
224
224
226
226
226
226
226
226
226
226
226
226
226
226
166
166
166
198
198
198
192
192
192
166
166
166
226
226
226
226
226
226
226
226
226
226
226
226
224
224
224
173
173
173
162
162
162
162
162
162
94
94
94
81
81
81
10
10
10
0
0
0
0
0
0
0
0
0
0
0
0
0
0
0
0
0
0
0
0
0
0
0
0
0
0
0
0
0
0
0
0
0
0
0
0
0
0
0
0
0
0
0
0
0
8
8
8
36
36
36
59
59
59
111
111
111
164
164
164
162
162
162
172
172
172
180
180
180
219
219
219
226
226
226
128
128
128
169
169
169
163
163
163
143
143
143
226
226
226
219
219
219
180
180
180
172
172
172
162
162
162
164
164
164
112
112
112
60
60
60
40
40
40
8
8
8
0
0
0
0
0
0
0
0
0
0
0
0
0
0
0
0
0
0
0
0
0
0
0
0
0
0
0
0
0
0
0
0
0
0
0
0
0
0
0
0
0
0
0
0
0
0
0
0
0
0
0
0
0
0
12
12
12
80
80
80
100
100
100
95
95
95
134
134
134
168
168
168
164
164
164
175
175
175
140
140
140
138
138
138
138
138
138
141
141
141
175
175
175
164
164
164
168
168
168
134
134
134
95
95
95
100
100
100
80
80
80
12
12
12
0
0
0
0
0
0
0
0
0
0
0
0
0
0
0
0
0
0
0
0
0
0
0
0
0
0
0
0
0
0
0
0
0
0
0
0
0
0
0
0
0
0
0
0
0
0
0
0
0
0
0
0
0
0
0
0
0
0
0
0
0
0
0
1
1
1
14
14
14
48
48
48
60
60
60
81
81
81
101
101
101
85
85
85
106
106
106
80
80
80
80
80
80
106
106
106
85
85
85
101
101
101
78
78
78
59
59
59
48
48
48
14
14
14
1
1
1
0
0
0
0
0
0
0
0
0
0
0
0
0
0
0
0
0
0
0
0
0
0
0
0
0
0
0
0
0
0
0
0
0
