P3
# CREATOR: GIMP PNM Filter Version 1.1
40 40
255
0
2
0
0
2
0
0
2
0
0
2
0
0
2
0
0
2
0
0
2
0
0
2
0
0
2
0
0
2
0
0
2
0
0
2
0
0
2
0
0
2
0
0
2
0
0
2
0
0
2
0
0
2
0
0
2
0
0
2
0
0
2
0
0
2
0
0
2
0
0
2
0
0
2
0
0
2
0
0
2
0
0
2
0
0
2
0
0
2
0
0
2
0
0
2
0
0
2
0
0
2
0
0
2
0
0
2
0
0
2
0
0
2
0
0
2
0
0
2
0
0
2
0
0
2
0
0
2
0
0
2
0
0
2
0
0
2
0
0
2
0
0
2
0
0
2
0
0
2
0
0
2
0
0
2
0
20
22
19
7
14
16
0
2
0
0
2
0
0
2
0
0
2
0
0
2
0
0
2
0
0
2
0
0
2
0
0
2
0
0
2
0
0
2
0
0
2
0
0
2
0
0
2
0
0
2
0
0
2
0
0
2
0
0
2
0
0
2
0
0
2
0
0
2
0
0
2
0
0
2
0
0
2
0
0
2
0
0
2
0
0
2
0
0
2
0
0
2
0
0
2
0
0
2
0
0
2
0
0
2
0
0
2
0
0
2
0
0
2
0
0
2
0
0
2
0
144
155
168
145
156
169
80
81
89
0
2
0
0
2
0
0
2
0
0
2
0
0
2
0
0
2
0
0
2
0
0
2
0
0
2
0
0
2
0
0
2
0
0
2
0
0
2
0
0
2
0
0
2
0
0
2
0
0
2
0
0
2
0
0
2
0
0
2
0
0
2
0
0
2
0
0
2
0
0
2
0
0
2
0
0
2
0
0
2
0
0
2
0
0
2
0
0
2
0
0
2
0
0
2
0
0
2
0
0
2
0
0
2
0
0
2
0
0
2
0
144
152
160
163
175
188
146
154
162
68
64
63
0
2
0
0
2
0
0
2
0
0
2
0
0
2
0
0
2
0
0
2
0
0
2
0
0
2
0
0
2
0
0
2
0
0
2
0
0
2
0
0
2
0
0
2
0
0
2
0
0
2
0
0
2
0
0
2
0
0
2
0
0
2
0
0
2
0
0
2
0
0
2
0
0
2
0
0
2
0
0
2
0
0
2
0
0
2
0
0
2
0
0
2
0
0
2
0
0
2
0
0
2
0
0
2
0
0
2
0
144
152
160
157
168
182
153
164
177
138
143
146
28
32
34
0
2
0
0
2
0
0
2
0
0
2
0
0
2
0
0
2
0
0
2
0
0
2
0
0
2
0
0
2
0
0
2
0
0
2
0
0
2
0
0
2
0
0
2
0
0
2
0
0
2
0
0
2
0
0
2
0
0
2
0
0
2
0
0
2
0
0
2
0
0
2
0
0
2
0
0
2
0
0
2
0
0
2
0
0
2
0
0
2
0
0
2
0
0
2
0
0
2
0
0
2
0
0
2
0
88
96
103
153
164
177
157
168
182
138
146
154
78
83
85
0
2
0
0
2
0
0
2
0
0
2
0
0
2
0
0
2
0
0
2
0
0
2
0
0
2
0
0
2
0
0
2
0
0
2
0
0
2
0
0
2
0
0
2
0
0
2
0
0
2
0
0
2
0
0
2
0
0
2
0
0
2
0
0
2
0
0
2
0
0
2
0
0
2
0
0
2
0
0
2
0
0
2
0
0
2
0
0
2
0
0
2
0
0
2
0
0
2
0
0
2
0
0
2
0
37
41
43
168
179
193
158
170
183
145
150
152
119
124
126
34
36
34
0
2
0
0
2
0
0
2
0
0
2
0
0
2
0
0
2
0
0
2
0
0
2
0
0
2
0
0
2
0
0
2
0
0
2
0
0
2
0
0
2
0
0
2
0
0
2
0
0
2
0
0
2
0
0
2
0
0
2
0
0
2
0
0
2
0
0
2
0
0
2
0
0
2
0
0
2
0
0
2
0
0
2
0
0
2
0
0
2
0
0
2
0
0
2
0
0
2
0
0
2
0
0
2
0
158
170
183
145
156
169
126
133
141
127
134
142
83
84
82
0
2
0
0
2
0
0
2
0
0
2
0
0
2
0
0
2
0
0
2
0
0
2
0
0
2
0
0
2
0
0
2
0
0
2
0
0
2
0
0
2
0
0
2
0
0
2
0
0
2
0
0
2
0
0
2
0
0
2
0
0
2
0
0
2
0
0
2
0
0
2
0
0
2
0
0
2
0
0
2
0
0
2
0
0
2
0
0
2
0
0
2
0
0
2
0
0
2
0
0
2
0
0
2
0
110
117
125
157
168
182
153
161
169
152
160
168
131
136
138
34
36
34
0
2
0
0
2
0
0
2
0
0
2
0
0
2
0
0
2
0
0
2
0
0
2
0
0
2
0
0
2
0
0
2
0
0
2
0
0
2
0
0
2
0
0
2
0
0
2
0
0
2
0
0
2
0
0
2
0
0
2
0
0
2
0
0
2
0
0
2
0
0
2
0
0
2
0
0
2
0
11
16
19
74
78
80
65
63
67
20
15
14
0
2
0
0
2
0
0
2
0
0
2
0
56
60
62
174
186
199
148
156
164
160
168
176
132
140
147
98
100
97
0
2
0
0
2
0
0
2
0
0
2
0
0
2
0
0
2
0
0
2
0
0
2
0
0
2
0
0
2
0
0
2
0
0
2
0
0
2
0
0
2
0
0
2
0
0
2
0
0
2
0
0
2
0
0
2
0
0
2
0
0
2
0
0
2
0
0
2
0
0
2
0
0
2
0
0
2
0
94
102
109
163
175
188
153
164
177
145
143
147
90
92
89
20
22
19
0
2
0
0
2
0
0
7
10
110
117
125
116
123
131
135
143
150
141
149
156
131
136
138
66
63
51
0
2
0
0
2
0
0
2
0
0
2
0
0
2
0
0
2
0
0
2
0
0
2
0
0
2
0
0
2
0
0
2
0
0
2
0
0
2
0
0
2
0
0
2
0
0
2
0
0
2
0
0
2
0
0
2
0
0
2
0
0
2
0
0
2
0
0
2
0
0
2
0
0
2
0
46
50
52
158
170
183
150
158
166
160
168
176
152
160
168
163
171
179
50
54
56
0
2
0
0
2
0
58
62
64
134
142
149
135
143
150
123
131
138
127
132
135
116
120
123
23
25
23
0
2
0
0
2
0
0
2
0
0
2
0
0
2
0
0
2
0
0
2
0
0
2
0
0
2
0
0
2
0
0
2
0
0
2
0
0
2
0
0
2
0
0
2
0
0
2
0
0
2
0
0
2
0
0
2
0
0
2
0
0
2
0
0
2
0
0
2
0
0
2
0
0
2
0
107
115
122
158
170
183
147
159
172
155
167
180
153
164
177
163
171
179
92
97
99
0
2
0
0
2
0
125
132
140
140
151
164
117
125
133
122
129
137
86
93
100
134
139
142
0
2
0
0
2
0
0
2
0
9
2
0
7
9
5
0
2
0
0
2
0
0
2
0
0
2
0
0
2
0
0
2
0
0
2
0
0
2
0
0
2
0
0
2
0
0
2
0
0
2
0
0
2
0
0
2
0
0
2
0
0
2
0
0
2
0
0
2
0
0
2
0
0
2
0
17
19
16
117
125
133
120
127
135
134
142
149
133
141
148
134
139
142
145
156
169
114
121
129
31
32
30
0
7
10
133
145
158
141
149
156
121
128
136
107
115
122
140
148
155
94
96
93
0
2
0
0
2
0
70
82
72
117
132
108
98
103
53
29
31
13
0
2
0
0
2
0
0
2
0
0
2
0
0
2
0
0
2
0
0
2
0
0
2
0
0
2
0
0
2
0
0
2
0
0
2
0
0
2
0
0
2
0
0
2
0
0
2
0
0
2
0
0
2
0
0
2
0
50
54
56
127
134
142
167
178
192
153
164
177
130
142
155
132
140
147
127
134
142
145
150
152
66
70
72
13
18
20
97
105
112
141
149
156
127
134
142
103
111
118
153
161
169
12
15
11
0
2
0
44
58
53
140
142
121
72
65
38
111
119
56
0
2
5
0
2
0
0
2
0
0
2
0
0
2
0
0
2
0
0
2
0
0
2
0
0
2
0
0
2
0
0
2
0
0
2
0
0
2
0
0
2
0
0
2
0
0
2
0
0
2
0
0
2
0
0
2
0
0
2
0
70
77
84
148
156
164
163
175
188
127
134
142
126
133
141
144
152
160
109
116
124
123
131
138
131
136
138
69
71
68
56
60
62
114
121
129
111
116
118
101
109
116
47
46
39
51
48
37
93
91
61
87
105
76
140
142
121
128
143
101
6
3
9
0
2
0
0
2
0
0
2
0
0
2
0
0
2
0
0
2
0
0
2
0
0
2
0
0
2
0
0
2
0
0
2
0
0
2
0
0
2
0
0
2
0
0
2
0
0
2
0
0
2
0
0
2
0
0
2
0
0
2
0
74
78
80
140
151
164
138
146
154
144
152
160
138
146
154
140
151
164
132
140
147
100
105
107
100
105
107
121
128
136
89
93
95
106
111
113
109
116
124
91
88
75
114
102
86
123
111
94
97
94
65
55
74
62
117
137
124
17
19
16
0
2
0
0
2
0
0
2
0
0
2
0
0
2
0
0
2
0
0
2
0
0
2
0
0
2
0
0
2
0
0
2
0
0
2
0
0
2
0
0
2
0
0
2
0
0
2
0
0
2
0
0
2
0
0
2
0
0
2
0
15
9
7
97
105
112
158
170
183
163
171
179
160
165
168
141
149
156
147
159
172
144
155
168
133
141
148
100
105
107
117
125
133
113
115
112
100
106
96
89
82
76
88
79
68
116
102
97
72
69
57
7
9
5
3
10
13
0
2
0
0
2
0
0
2
0
0
2
0
0
2
0
0
2
0
0
2
0
0
2
0
0
2
0
0
2
0
0
2
0
0
2
0
0
2
0
0
2
0
0
2
0
0
2
0
0
2
0
0
2
0
0
2
0
0
2
0
0
2
0
0
2
0
17
19
16
120
127
135
171
182
196
141
149
156
128
136
144
158
170
183
135
143
150
125
132
140
133
141
148
120
127
135
87
86
78
74
75
73
80
70
54
89
82
76
89
82
76
27
27
20
0
2
0
0
2
0
0
2
0
0
2
0
0
2
0
0
2
0
0
2
0
0
2
0
0
2
0
0
2
0
0
2
0
0
2
0
0
2
0
0
2
0
0
2
0
0
2
0
0
2
0
0
2
0
0
2
0
0
2
0
0
2
0
0
2
0
0
2
0
0
2
0
0
2
0
2
5
1
70
77
84
144
152
160
145
156
169
107
115
122
89
93
95
53
57
59
28
32
34
13
6
4
72
69
57
86
97
98
78
78
70
116
113
100
104
108
111
119
124
126
116
118
115
18
22
24
0
2
0
0
2
0
0
2
0
0
2
0
0
2
0
0
2
0
0
2
0
0
2
0
0
2
0
0
2
0
0
2
0
0
2
0
0
2
0
0
2
0
0
2
0
0
2
0
0
2
0
0
2
0
0
2
0
0
2
0
0
2
0
0
2
0
0
2
0
0
2
0
0
2
0
0
2
0
0
2
0
0
2
0
0
2
0
0
2
0
0
2
0
42
49
56
62
110
121
49
41
31
112
110
114
109
111
108
115
122
130
96
100
102
123
131
138
152
160
168
32
34
32
0
2
0
0
2
0
0
2
0
0
2
0
0
2
0
0
2
0
0
2
0
0
2
0
0
2
0
0
2
0
0
2
0
0
2
0
0
2
0
0
2
0
0
2
0
0
2
0
0
2
0
0
2
0
0
2
0
0
2
0
0
2
0
0
2
0
0
2
0
0
2
0
0
2
0
0
2
0
0
2
0
0
2
0
7
9
5
36
46
47
65
83
82
7
9
5
26
28
26
141
149
156
119
124
126
103
111
118
97
105
112
140
148
155
111
116
118
125
132
140
51
52
50
0
2
0
0
2
0
0
2
0
0
2
0
0
2
0
0
2
0
0
2
0
0
2
0
0
2
0
0
2
0
0
2
0
0
2
0
0
2
0
0
2
0
0
2
0
0
2
0
0
2
0
0
2
0
0
2
0
0
2
0
0
2
0
0
2
0
0
2
0
0
2
0
0
2
0
0
2
0
19
20
18
51
52
50
63
97
104
13
6
4
0
2
0
77
78
76
144
152
160
105
113
120
72
76
78
113
120
128
135
143
150
113
120
128
96
100
102
116
120
123
78
78
70
0
2
0
0
2
0
0
2
0
0
2
0
0
2
0
0
2
0
0
2
0
0
2
0
0
2
0
0
2
0
0
2
0
0
2
0
0
2
0
0
2
0
0
2
0
0
2
0
0
2
0
0
2
0
0
2
0
0
2
0
0
2
0
0
2
0
0
2
0
0
2
0
32
29
28
76
91
97
65
67
65
16
21
23
0
2
0
9
12
7
105
113
120
150
161
175
88
96
103
109
113
116
56
60
62
128
136
144
114
121
129
127
139
152
128
136
144
128
130
127
87
89
86
23
25
23
0
2
0
0
2
0
0
2
0
0
2
0
0
2
0
0
2
0
0
2
0
0
2
0
0
2
0
0
2
0
0
2
0
0
2
0
0
2
0
0
2
0
0
2
0
0
2
0
0
2
0
0
2
0
0
2
0
0
2
0
0
2
5
38
40
37
81
77
75
75
86
87
26
28
26
0
2
0
0
2
0
37
41
43
146
154
162
150
161
175
113
120
128
111
116
118
41
42
40
115
122
130
156
164
172
107
115
122
140
148
155
158
163
165
121
128
136
117
125
133
78
75
63
2
5
1
0
2
0
0
2
0
0
2
0
0
2
0
0
2
0
0
2
0
0
2
0
0
2
0
0
2
0
0
2
0
0
2
0
0
2
0
0
2
0
0
2
0
0
2
0
0
2
0
0
2
0
0
2
0
46
48
45
97
112
118
83
91
98
7
14
16
0
2
0
0
2
0
0
2
0
86
93
100
140
148
155
140
151
164
146
154
162
113
120
128
106
108
105
7
9
5
140
148
155
121
128
136
127
134
142
152
160
168
169
177
185
144
152
160
116
123
131
102
107
109
46
50
52
0
2
0
0
2
0
0
2
0
0
2
0
0
2
0
0
2
0
0
2
0
0
2
0
0
2
0
0
2
0
0
2
0
0
2
0
0
2
0
0
2
0
0
2
0
2
5
1
56
60
62
92
88
86
77
78
76
20
24
26
0
2
0
0
2
0
0
2
0
0
2
0
117
125
133
133
145
158
140
148
155
163
171
179
107
115
122
138
143
146
31
32
30
7
14
16
107
115
122
144
152
160
135
143
150
140
151
164
144
152
160
131
136
138
141
149
156
135
143
150
71
64
58
0
2
0
0
2
0
0
2
0
0
2
0
0
2
0
0
2
0
0
2
0
0
2
0
0
2
0
0
2
0
0
2
0
0
2
0
0
2
0
9
2
0
32
34
32
62
70
66
75
97
101
7
9
5
0
2
0
0
2
0
0
2
0
0
2
0
0
2
0
115
122
130
125
132
140
163
171
179
135
143
150
141
149
156
126
133
141
106
111
113
0
2
0
7
9
5
50
54
56
158
170
183
170
181
195
153
161
169
155
167
180
158
170
183
155
167
180
141
149
156
70
68
71
0
2
0
0
2
0
0
2
0
0
2
0
0
2
0
0
2
0
0
2
0
0
2
0
0
2
0
0
2
0
0
2
0
7
9
5
36
32
31
102
133
136
42
46
48
7
9
5
0
2
0
0
2
0
0
2
0
0
2
0
0
2
0
0
2
0
50
54
56
171
182
196
169
177
185
140
148
155
135
143
150
135
143
150
156
164
172
51
52
50
0
2
0
0
2
0
12
15
11
72
76
78
135
143
150
168
179
193
155
167
180
158
170
183
158
170
183
148
156
164
13
18
20
0
2
0
0
2
0
0
2
0
0
2
0
0
2
0
0
2
0
0
2
0
0
2
0
0
2
0
2
5
1
46
50
52
63
77
82
39
49
50
7
9
5
0
2
0
0
2
0
0
2
0
0
2
0
0
2
0
0
2
0
0
2
0
0
2
0
110
117
125
158
170
183
135
143
150
121
126
128
130
142
155
140
148
155
160
165
168
12
15
11
0
2
0
0
2
0
0
2
0
0
2
0
25
29
31
97
105
112
155
167
180
171
182
196
167
178
192
23
27
29
0
2
0
0
2
0
0
2
0
0
2
0
0
2
0
0
2
0
0
2
0
0
2
0
0
2
0
54
62
58
93
99
90
42
50
46
0
2
0
0
2
0
0
2
0
0
2
0
0
2
0
0
2
0
0
2
0
0
2
0
0
2
0
0
2
0
12
15
11
113
120
128
150
158
166
155
167
180
144
155
168
145
156
169
163
175
188
92
97
99
0
2
0
0
2
0
0
2
0
0
2
0
0
2
0
0
2
0
0
2
0
7
9
5
9
12
7
0
2
0
0
2
0
0
2
0
0
2
0
0
2
0
0
2
0
0
2
0
0
2
0
0
2
0
46
50
52
60
65
67
46
50
52
0
2
0
0
2
0
0
2
0
0
2
0
0
2
0
0
2
0
0
2
0
0
2
0
0
2
0
0
2
0
0
2
0
0
2
0
17
19
16
107
115
122
150
161
175
163
175
188
134
142
149
144
152
160
171
179
187
31
32
30
0
2
0
0
2
0
0
2
0
0
2
0
0
2
0
0
2
0
0
2
0
0
2
0
0
2
0
0
2
0
0
2
0
0
2
0
0
2
0
0
2
0
0
2
0
0
2
0
0
2
0
38
34
33
11
13
10
0
2
0
0
2
0
0
2
0
0
2
0
0
2
0
0
2
0
0
2
0
0
2
0
0
2
0
0
2
0
0
2
0
0
2
0
0
2
0
0
2
0
3
10
13
126
133
141
135
143
150
125
132
140
137
148
162
153
164
177
71
64
58
0
2
0
0
2
0
0
2
0
0
2
0
0
2
0
0
2
0
0
2
0
0
2
0
0
2
0
0
2
0
0
2
0
0
2
0
0
2
0
0
2
0
0
2
0
0
2
0
0
2
0
0
2
0
0
2
0
0
2
0
0
2
0
0
2
0
0
2
0
0
2
0
0
2
0
0
2
0
0
2
0
0
2
0
0
2
0
0
2
0
0
2
0
0
2
0
0
2
0
0
2
0
14
12
16
113
120
128
141
149
156
138
146
154
153
164
177
146
154
162
0
2
0
0
2
0
0
2
0
0
2
0
0
2
0
0
2
0
0
2
0
0
2
0
0
2
0
0
2
0
0
2
0
0
2
0
0
2
0
0
2
0
0
2
0
0
2
0
0
2
0
0
2
0
0
2
0
0
2
0
0
2
0
0
2
0
0
2
0
0
2
0
0
2
0
0
2
0
0
2
0
0
2
0
0
2
0
0
2
0
0
2
0
0
2
0
0
2
0
0
2
0
0
2
0
9
15
17
85
89
92
163
175
188
135
143
150
141
149
156
11
13
10
0
2
0
0
2
0
0
2
0
0
2
0
0
2
0
0
2
0
0
2
0
0
2
0
0
2
0
0
2
0
0
2
0
0
2
0
0
2
0
0
2
0
0
2
0
0
2
0
0
2
0
0
2
0
0
2
0
0
2
0
0
2
0
0
2
0
0
2
0
0
2
0
0
2
0
0
2
0
0
2
0
0
2
0
0
2
0
0
2
0
0
2
0
0
2
0
0
2
0
0
2
0
0
2
0
0
2
0
77
84
91
167
178
192
144
152
160
0
5
9
0
2
0
0
2
0
0
2
0
0
2
0
0
2
0
0
2
0
0
2
0
0
2
0
0
2
0
0
2
0
0
2
0
0
2
0
0
2
0
0
2
0
0
2
0
0
2
0
0
2
0
0
2
0
0
2
0
0
2
0
0
2
0
0
2
0
0
2
0
0
2
0
0
2
0
0
2
0
0
2
0
0
2
0
0
2
0
0
2
0
0
2
0
0
2
0
0
2
0
0
2
0
0
2
0
0
2
0
0
2
0
18
15
19
12
15
11
0
2
0
0
2
0
0
2
0
0
2
0
0
2
0
0
2
0
0
2
0
0
2
0
0
2
0
0
2
0
0
2
0
0
2
0
0
2
0
0
2
0
0
2
0
0
2
0
0
2
0
0
2
0
0
2
0
0
2
0
0
2
0
0
2
0
0
2
0
0
2
0
0
2
0
0
2
0
0
2
0
0
2
0
0
2
0
0
2
0
0
2
0
0
2
0
0
2
0
0
2
0
0
2
0
0
2
0
0
2
0
0
2
0
0
2
0
0
2
0
0
2
0
0
2
0
0
2
0
0
2
0
0
2
0
0
2
0
0
2
0
0
2
0
0
2
0
0
2
0
0
2
0
0
2
0
0
2
0
0
2
0
0
2
0
0
2
0
0
2
0
0
2
0
0
2
0
0
2
0
0
2
0
0
2
0
0
2
0
0
2
0
0
2
0
0
2
0
0
2
0
0
2
0
0
2
0
0
2
0
0
2
0
0
2
0
0
2
0
0
2
0
0
2
0
0
2
0
0
2
0
0
2
0
0
2
0
0
2
0
0
2
0
0
2
0
0
2
0
0
2
0
0
2
0
0
2
0
0
2
0
0
2
0
0
2
0
0
2
0
0
2
0
0
2
0
0
2
0
0
2
0
0
2
0
0
2
0
0
2
0
0
2
0
0
2
0
0
2
0
0
2
0
0
2
0
0
2
0
0
2
0
0
2
0
0
2
0
0
2
0
0
2
0
0
2
0
0
2
0
0
2
0
0
2
0
0
2
0
0
2
0
0
2
0
0
2
0
0
2
0
0
2
0
0
2
0
0
2
0
0
2
0
0
2
0
0
2
0
0
2
0
0
2
0
0
2
0
0
2
0
0
2
0
0
2
0
0
2
0
